<?xml version="1.0" encoding="UTF-8"?>
<svg xmlns="http://www.w3.org/2000/svg" xmlns:xlink="http://www.w3.org/1999/xlink" width="250pt" height="248pt" viewBox="0 0 250 248" version="1.1">
<defs>
<filter id="alpha" filterUnits="objectBoundingBox" x="0%" y="0%" width="100%" height="100%">
  <feColorMatrix type="matrix" in="SourceGraphic" values="0 0 0 0 1 0 0 0 0 1 0 0 0 0 1 0 0 0 1 0"/>
</filter>
<mask id="mask0">
  <g filter="url(#alpha)">
<rect x="0" y="0" width="250" height="248" style="fill:rgb(0%,0%,0%);fill-opacity:0.101961;stroke:none;"/>
  </g>
</mask>
<clipPath id="clip1">
  <rect x="0" y="0" width="250" height="248"/>
</clipPath>
<g id="surface5" clip-path="url(#clip1)">
<path style=" stroke:none;fill-rule:nonzero;fill:rgb(0%,0%,0%);fill-opacity:1;" d="M 106.71875 240.894531 C 114.140625 240.890625 120.734375 236.160156 123.125 229.121094 C 120.121094 234.269531 114.742188 237.566406 108.796875 237.902344 C 102.855469 238.234375 97.136719 235.5625 93.578125 230.78125 L 93.566406 234.472656 C 96.75 238.386719 101.289062 240.894531 106.71875 240.894531 Z M 106.71875 240.894531 "/>
</g>
<mask id="mask1">
  <g filter="url(#alpha)">
<rect x="0" y="0" width="250" height="248" style="fill:rgb(0%,0%,0%);fill-opacity:0.101961;stroke:none;"/>
  </g>
</mask>
<clipPath id="clip2">
  <rect x="0" y="0" width="250" height="248"/>
</clipPath>
<g id="surface8" clip-path="url(#clip2)">
<path style=" stroke:none;fill-rule:nonzero;fill:rgb(0%,0%,0%);fill-opacity:1;" d="M 143.28125 240.894531 C 135.859375 240.890625 129.265625 236.160156 126.875 229.121094 C 129.878906 234.269531 135.257812 237.566406 141.203125 237.902344 C 147.144531 238.234375 152.863281 235.5625 156.421875 230.78125 L 156.421875 234.46875 C 153.25 238.386719 148.710938 240.894531 143.28125 240.894531 Z M 143.28125 240.894531 "/>
</g>
<mask id="mask2">
  <g filter="url(#alpha)">
<rect x="0" y="0" width="250" height="248" style="fill:rgb(0%,0%,0%);fill-opacity:0.2;stroke:none;"/>
  </g>
</mask>
<clipPath id="clip3">
  <rect x="0" y="0" width="250" height="248"/>
</clipPath>
<g id="surface11" clip-path="url(#clip3)">
<path style=" stroke:none;fill-rule:nonzero;fill:rgb(100%,100%,100%);fill-opacity:1;" d="M 108.050781 137.414062 C 108.050781 150.324219 97.609375 160.789062 84.726562 160.789062 C 71.839844 160.789062 61.398438 150.324219 61.398438 137.414062 C 61.398438 124.503906 71.839844 114.039062 84.726562 114.039062 C 97.609375 114.039062 108.050781 124.503906 108.050781 137.414062 Z M 108.050781 137.414062 "/>
</g>
<mask id="mask3">
  <g filter="url(#alpha)">
<rect x="0" y="0" width="250" height="248" style="fill:rgb(0%,0%,0%);fill-opacity:0.14902;stroke:none;"/>
  </g>
</mask>
<clipPath id="clip4">
  <rect x="0" y="0" width="250" height="248"/>
</clipPath>
<g id="surface14" clip-path="url(#clip4)">
<path style=" stroke:none;fill-rule:nonzero;fill:rgb(0%,0%,0%);fill-opacity:1;" d="M 186.117188 152.011719 C 179.90625 161.125 168.609375 165.285156 157.988281 162.375 C 147.367188 159.464844 139.753906 150.125 139.035156 139.113281 C 129.785156 135.457031 120.425781 135.488281 110.488281 139.210938 C 109.53125 152.761719 98.292969 163.269531 84.738281 163.292969 C 76.617188 163.292969 65.738281 154.148438 66.988281 156.179688 C 70.488281 161.363281 78.738281 165.3125 85.121094 165.3125 C 98.761719 165.3125 109.589844 155.46875 110.511719 142.035156 C 120.453125 138.3125 129.820312 138.277344 139.058594 141.9375 C 139.933594 155.417969 151.15625 165.367188 164.828125 165.367188 C 176 165.367188 182.351562 156.816406 186.117188 152.011719 Z M 186.117188 152.011719 "/>
</g>
<mask id="mask4">
  <g filter="url(#alpha)">
<rect x="0" y="0" width="250" height="248" style="fill:rgb(0%,0%,0%);fill-opacity:0.4;stroke:none;"/>
  </g>
</mask>
<clipPath id="clip5">
  <rect x="0" y="0" width="250" height="248"/>
</clipPath>
<g id="surface17" clip-path="url(#clip5)">
<path style=" stroke:none;fill-rule:nonzero;fill:rgb(100%,100%,100%);fill-opacity:1;" d="M 80 162.515625 L 110.765625 131.683594 C 110.089844 130.15625 109.253906 128.703125 108.265625 127.355469 L 75.679688 160.011719 C 77.027344 161 78.476562 161.839844 80 162.515625 Z M 80 162.515625 "/>
</g>
<mask id="mask5">
  <g filter="url(#alpha)">
<rect x="0" y="0" width="250" height="248" style="fill:rgb(0%,0%,0%);fill-opacity:0.2;stroke:none;"/>
  </g>
</mask>
<clipPath id="clip6">
  <rect x="0" y="0" width="250" height="248"/>
</clipPath>
<g id="surface20" clip-path="url(#clip6)">
<path style=" stroke:none;fill-rule:nonzero;fill:rgb(100%,100%,100%);fill-opacity:1;" d="M 188.128906 137.414062 C 188.128906 150.324219 177.6875 160.789062 164.800781 160.789062 C 151.917969 160.789062 141.476562 150.324219 141.476562 137.414062 C 141.476562 124.503906 151.917969 114.039062 164.800781 114.039062 C 177.6875 114.039062 188.128906 124.503906 188.128906 137.414062 Z M 188.128906 137.414062 "/>
</g>
<mask id="mask6">
  <g filter="url(#alpha)">
<rect x="0" y="0" width="250" height="248" style="fill:rgb(0%,0%,0%);fill-opacity:0.4;stroke:none;"/>
  </g>
</mask>
<clipPath id="clip7">
  <rect x="0" y="0" width="250" height="248"/>
</clipPath>
<g id="surface23" clip-path="url(#clip7)">
<path style=" stroke:none;fill-rule:nonzero;fill:rgb(100%,100%,100%);fill-opacity:1;" d="M 161.296875 160.527344 L 187.867188 133.898438 C 187.722656 132.953125 187.523438 132.011719 187.265625 131.089844 L 158.5 159.921875 C 159.417969 160.179688 160.355469 160.382812 161.296875 160.527344 Z M 161.296875 160.527344 "/>
</g>
</defs>
<g id="surface1">
<path style=" stroke:none;fill-rule:nonzero;fill:rgb(34.901961%,17.647059%,23.921569%);fill-opacity:1;" d="M 125.425781 52.484375 C 83.890625 52.484375 50.21875 86.222656 50.21875 127.84375 L 50.21875 168.785156 C 52.589844 171.421875 56.5625 173.6875 61.71875 175.597656 L 65.050781 165.632812 L 68.664062 177.773438 C 106.855469 187.953125 185.34375 184.105469 200.636719 168.785156 L 200.636719 127.84375 C 200.636719 86.222656 166.960938 52.484375 125.425781 52.484375 Z M 125.425781 52.484375 "/>
<path style=" stroke:none;fill-rule:nonzero;fill:rgb(34.901961%,17.647059%,23.921569%);fill-opacity:1;" d="M 60.71875 175.214844 C 61.046875 175.34375 61.378906 175.464844 61.71875 175.597656 L 65.050781 165.632812 L 68.664062 177.773438 C 79.96875 180.78125 94.800781 182.570312 110.484375 183.191406 L 117.304688 176.625 L 58.953125 132.625 C 58.953125 132.625 57.417969 158.039062 60.71875 175.214844 Z M 60.71875 175.214844 "/>
<path style=" stroke:none;fill-rule:nonzero;fill:rgb(34.901961%,17.647059%,23.921569%);fill-opacity:1;" d="M 154.300781 138.472656 L 160.628906 181.25 C 169.328125 180.164062 177.28125 178.679688 183.90625 176.808594 C 183.90625 176.808594 192.175781 167.566406 191.285156 132.625 C 190.390625 97.683594 154.300781 138.472656 154.300781 138.472656 Z M 154.300781 138.472656 "/>
<path style="fill:none;stroke-width:12;stroke-linecap:butt;stroke-linejoin:miter;stroke:rgb(34.901961%,17.647059%,23.921569%);stroke-opacity:1;stroke-miterlimit:10;" d="M 501.703125 209.514239 C 335.5625 209.514239 200.875 344.195281 200.875 510.344002 L 200.875 673.779454 C 210.359375 684.305066 226.25 693.349294 246.875 700.974515 L 260.203125 661.195502 L 274.65625 709.660093 C 427.421875 750.296749 741.375 734.937153 802.546875 673.779454 L 802.546875 510.344002 C 802.546875 344.195281 667.84375 209.514239 501.703125 209.514239 Z M 501.703125 209.514239 " transform="matrix(0.25,0,0,0.250505,0,0)"/>
<path style=" stroke:none;fill-rule:nonzero;fill:rgb(99.215686%,82.352941%,69.803922%);fill-opacity:1;" d="M 152.5 190.0625 C 175.191406 190.0625 170.5 218.679688 170.71875 250.503906 L 152.5 250.503906 Z M 152.5 190.0625 "/>
<path style=" stroke:none;fill-rule:nonzero;fill:rgb(95.294118%,67.058824%,59.607843%);fill-opacity:1;" d="M 158.183594 208.386719 L 152.5 217.9375 L 155.34375 250.503906 L 163.285156 250.503906 C 163.476562 205.347656 158.183594 208.386719 158.183594 208.386719 Z M 158.183594 208.386719 "/>
<path style=" stroke:none;fill-rule:nonzero;fill:rgb(99.215686%,82.352941%,69.803922%);fill-opacity:1;" d="M 58.3125 125.253906 C 58.3125 88.347656 88.171875 58.429688 125 58.429688 C 161.828125 58.429688 191.6875 88.347656 191.6875 125.253906 C 191.707031 145.390625 182.640625 164.460938 167.023438 177.136719 C 165.65625 178.253906 164.246094 179.3125 162.789062 180.316406 C 147.75 189.882812 128.75 189.882812 111.597656 188.351562 C 109.933594 188.101562 108.273438 187.785156 106.625 187.421875 C 100.042969 185.96875 93.671875 183.726562 87.78125 180.457031 C 86.328125 179.558594 84.917969 178.589844 83.550781 177.546875 C 82.175781 176.5 80.859375 175.382812 79.601562 174.195312 C 78.410156 173.089844 77.261719 171.9375 76.152344 170.746094 C 64.667969 158.394531 58.289062 142.132812 58.3125 125.253906 Z M 58.3125 125.253906 "/>
<path style=" stroke:none;fill-rule:nonzero;fill:rgb(95.294118%,67.058824%,59.607843%);fill-opacity:1;" d="M 67.402344 158.941406 C 67.578125 159.242188 67.75 159.542969 67.929688 159.835938 C 68.039062 160.019531 68.148438 160.191406 68.261719 160.375 C 68.425781 160.640625 68.59375 160.910156 68.761719 161.171875 C 68.882812 161.363281 69.011719 161.546875 69.128906 161.734375 C 69.292969 161.984375 69.457031 162.234375 69.628906 162.484375 C 69.753906 162.675781 69.878906 162.867188 70.015625 163.054688 C 70.183594 163.308594 70.347656 163.539062 70.515625 163.777344 C 70.652344 163.96875 70.792969 164.160156 70.929688 164.355469 C 71.066406 164.546875 71.265625 164.816406 71.429688 165.046875 C 71.59375 165.277344 71.71875 165.429688 71.863281 165.621094 C 72.007812 165.8125 72.203125 166.074219 72.378906 166.296875 C 72.554688 166.523438 72.675781 166.675781 72.828125 166.863281 C 72.976562 167.050781 73.179688 167.304688 73.359375 167.523438 C 73.535156 167.742188 73.664062 167.894531 73.820312 168.082031 C 73.976562 168.265625 74.179688 168.511719 74.363281 168.726562 C 74.546875 168.9375 74.679688 169.09375 74.839844 169.277344 L 75.394531 169.902344 C 75.558594 170.085938 75.722656 170.261719 75.894531 170.445312 C 76.109375 170.679688 76.328125 170.910156 76.546875 171.140625 L 76.847656 171.464844 C 77.171875 171.800781 77.496094 172.132812 77.824219 172.464844 L 77.890625 172.53125 C 78.210938 172.851562 78.539062 173.171875 78.867188 173.488281 L 79.261719 173.863281 C 79.5 174.085938 79.738281 174.308594 79.976562 174.53125 L 80.265625 174.792969 C 80.515625 175.03125 80.789062 175.261719 81.050781 175.492188 C 81.871094 176.203125 82.703125 176.886719 83.550781 177.542969 C 84.917969 178.585938 86.328125 179.554688 87.785156 180.453125 C 93.671875 183.710938 100.035156 185.964844 106.628906 187.417969 C 108.273438 187.78125 109.933594 188.09375 111.601562 188.347656 C 122.125 189.285156 133.351562 189.644531 143.921875 187.574219 C 127.113281 182.617188 46.398438 153.496094 97.199219 64.5 C 96.519531 64.8125 95.851562 65.136719 95.183594 65.472656 L 95.039062 65.542969 C 94.734375 65.699219 94.425781 65.855469 94.125 66.015625 L 93.875 66.148438 C 92.933594 66.648438 92.003906 67.167969 91.09375 67.710938 L 90.867188 67.839844 C 90.578125 68.015625 90.289062 68.191406 90.003906 68.367188 L 89.785156 68.503906 C 88.890625 69.0625 88.011719 69.640625 87.148438 70.238281 L 86.878906 70.425781 C 86.605469 70.617188 86.335938 70.808594 86.070312 71 L 85.90625 71.117188 C 85.359375 71.515625 84.820312 71.921875 84.289062 72.332031 L 84.136719 72.449219 C 83.886719 72.644531 83.636719 72.847656 83.386719 73.050781 L 83.09375 73.285156 C 82.84375 73.488281 82.59375 73.691406 82.34375 73.898438 C 81.816406 74.335938 81.296875 74.789062 80.78125 75.246094 L 80.496094 75.496094 L 79.824219 76.109375 L 79.5 76.402344 C 78.785156 77.070312 78.089844 77.753906 77.40625 78.449219 L 77.0625 78.804688 C 76.863281 79.007812 76.667969 79.214844 76.472656 79.421875 C 76.359375 79.546875 76.242188 79.671875 76.128906 79.792969 C 75.785156 80.160156 75.449219 80.53125 75.113281 80.910156 C 75.003906 81.039062 74.886719 81.160156 74.773438 81.296875 C 74.597656 81.5 74.421875 81.703125 74.246094 81.910156 L 73.871094 82.359375 C 73.699219 82.5625 73.53125 82.765625 73.371094 82.96875 C 73.234375 83.136719 73.101562 83.304688 72.96875 83.472656 C 72.699219 83.804688 72.4375 84.136719 72.175781 84.472656 C 72.042969 84.648438 71.90625 84.824219 71.773438 85 C 71.640625 85.179688 71.476562 85.398438 71.328125 85.601562 C 71.179688 85.804688 71.058594 85.964844 70.929688 86.148438 C 70.800781 86.332031 70.648438 86.535156 70.511719 86.730469 C 70.273438 87.066406 70.039062 87.40625 69.808594 87.746094 C 69.683594 87.929688 69.558594 88.117188 69.4375 88.304688 C 69.316406 88.488281 69.164062 88.71875 69.027344 88.929688 L 68.65625 89.507812 L 68.234375 90.1875 C 68.128906 90.359375 68.019531 90.53125 67.914062 90.707031 C 67.691406 91.070312 67.476562 91.4375 67.261719 91.808594 L 66.957031 92.347656 C 66.824219 92.585938 66.6875 92.828125 66.554688 93.066406 C 66.453125 93.25 66.355469 93.433594 66.257812 93.617188 C 66.097656 93.914062 65.941406 94.214844 65.78125 94.515625 L 65.484375 95.101562 C 65.324219 95.421875 65.164062 95.742188 65.003906 96.0625 C 64.921875 96.238281 64.835938 96.410156 64.753906 96.585938 C 64.625 96.859375 64.503906 97.136719 64.371094 97.410156 C 64.296875 97.578125 64.21875 97.742188 64.144531 97.914062 C 63.960938 98.324219 63.777344 98.742188 63.601562 99.164062 C 63.546875 99.296875 63.496094 99.429688 63.441406 99.558594 C 63.308594 99.875 63.175781 100.195312 63.050781 100.515625 C 62.984375 100.683594 62.917969 100.851562 62.851562 101.015625 C 62.726562 101.332031 62.601562 101.648438 62.488281 101.96875 C 62.4375 102.105469 62.386719 102.242188 62.335938 102.382812 C 62.179688 102.820312 62.023438 103.261719 61.871094 103.699219 L 61.734375 104.125 C 61.621094 104.457031 61.515625 104.792969 61.410156 105.125 L 61.261719 105.605469 C 61.140625 105.992188 61.027344 106.378906 60.917969 106.765625 C 60.890625 106.847656 60.867188 106.929688 60.84375 107.015625 C 60.714844 107.476562 60.589844 107.9375 60.46875 108.402344 C 60.429688 108.550781 60.394531 108.703125 60.359375 108.847656 C 60.269531 109.199219 60.183594 109.546875 60.109375 109.898438 L 60.003906 110.335938 C 59.894531 110.8125 59.789062 111.285156 59.691406 111.765625 L 59.65625 111.957031 C 59.570312 112.382812 59.488281 112.808594 59.40625 113.234375 C 59.378906 113.386719 59.351562 113.539062 59.324219 113.691406 C 59.261719 114.066406 59.199219 114.441406 59.140625 114.820312 C 59.121094 114.945312 59.097656 115.070312 59.078125 115.199219 C 59.003906 115.6875 58.9375 116.179688 58.871094 116.671875 L 58.835938 117 C 58.785156 117.398438 58.738281 117.796875 58.699219 118.199219 C 58.683594 118.347656 58.664062 118.5 58.648438 118.652344 C 58.609375 119.074219 58.574219 119.496094 58.539062 119.917969 C 58.539062 120.007812 58.523438 120.09375 58.515625 120.167969 C 58.480469 120.671875 58.449219 121.175781 58.421875 121.683594 C 58.421875 121.816406 58.421875 121.953125 58.402344 122.085938 C 58.386719 122.480469 58.371094 122.875 58.359375 123.265625 C 58.359375 123.414062 58.359375 123.5625 58.359375 123.710938 C 58.359375 124.222656 58.335938 124.738281 58.335938 125.253906 C 58.335938 125.253906 58.335938 125.273438 58.335938 125.28125 C 58.335938 125.835938 58.335938 126.386719 58.359375 126.9375 C 58.359375 127.128906 58.371094 127.320312 58.378906 127.507812 C 58.390625 127.878906 58.402344 128.246094 58.421875 128.613281 C 58.421875 128.835938 58.449219 129.058594 58.460938 129.28125 C 58.480469 129.613281 58.496094 129.945312 58.523438 130.28125 C 58.539062 130.53125 58.5625 130.757812 58.582031 130.992188 C 58.609375 131.308594 58.636719 131.621094 58.667969 131.9375 C 58.691406 132.1875 58.71875 132.421875 58.746094 132.664062 C 58.78125 132.96875 58.8125 133.273438 58.851562 133.578125 C 58.878906 133.828125 58.914062 134.078125 58.949219 134.316406 C 58.988281 134.613281 59.027344 134.910156 59.074219 135.207031 C 59.109375 135.457031 59.148438 135.707031 59.191406 135.957031 C 59.234375 136.246094 59.28125 136.539062 59.332031 136.832031 C 59.378906 137.082031 59.421875 137.332031 59.46875 137.582031 C 59.523438 137.871094 59.578125 138.160156 59.632812 138.445312 C 59.6875 138.730469 59.734375 138.945312 59.789062 139.195312 C 59.847656 139.480469 59.90625 139.765625 59.972656 140.046875 C 60.039062 140.332031 60.082031 140.546875 60.140625 140.78125 C 60.207031 141.0625 60.277344 141.34375 60.347656 141.621094 C 60.417969 141.902344 60.46875 142.113281 60.53125 142.351562 C 60.609375 142.632812 60.683594 142.910156 60.761719 143.1875 C 60.824219 143.4375 60.890625 143.667969 60.960938 143.90625 C 61.042969 144.1875 61.125 144.460938 61.210938 144.738281 C 61.300781 145.011719 61.359375 145.210938 61.433594 145.449219 C 61.507812 145.6875 61.609375 145.996094 61.699219 146.269531 C 61.789062 146.542969 61.851562 146.738281 61.933594 146.972656 C 62.027344 147.246094 62.121094 147.515625 62.21875 147.789062 C 62.300781 148.019531 62.382812 148.25 62.46875 148.476562 L 62.78125 149.296875 C 62.867188 149.519531 62.953125 149.746094 63.03125 149.96875 C 63.140625 150.242188 63.253906 150.515625 63.363281 150.789062 C 63.453125 151.003906 63.542969 151.222656 63.636719 151.4375 C 63.753906 151.71875 63.886719 151.992188 63.996094 152.273438 C 64.089844 152.476562 64.179688 152.683594 64.273438 152.890625 C 64.402344 153.179688 64.539062 153.46875 64.671875 153.753906 L 64.941406 154.328125 C 65.09375 154.644531 65.253906 154.953125 65.410156 155.269531 C 65.488281 155.425781 65.566406 155.585938 65.648438 155.742188 C 66.128906 156.679688 66.628906 157.605469 67.148438 158.515625 C 67.21875 158.636719 67.3125 158.789062 67.402344 158.941406 Z M 67.402344 158.941406 "/>
<path style="fill:none;stroke-width:12;stroke-linecap:butt;stroke-linejoin:miter;stroke:rgb(34.901961%,17.647059%,23.921569%);stroke-opacity:1;stroke-miterlimit:10;" d="M 233.25 500.005513 C 233.25 352.678144 352.6875 233.247543 500 233.247543 C 647.3125 233.247543 766.75 352.678144 766.75 500.005513 C 766.828125 580.389995 730.5625 656.517452 668.09375 707.118353 C 662.625 711.578093 656.984375 715.803931 651.15625 719.81146 C 591 757.999937 515 757.999937 446.390625 751.887286 C 439.734375 750.889302 433.09375 749.626229 426.5 748.176033 C 400.171875 742.375252 374.6875 733.424584 351.125 720.372826 C 345.3125 716.786322 339.671875 712.919134 334.203125 708.75567 C 328.703125 704.576613 323.4375 700.116872 318.40625 695.376449 C 313.640625 690.963489 309.046875 686.363407 304.609375 681.60739 C 258.671875 632.30075 233.15625 567.385018 233.25 500.005513 Z M 233.25 500.005513 " transform="matrix(0.25,0,0,0.250505,0,0)"/>
<path style=" stroke:none;fill-rule:nonzero;fill:rgb(99.215686%,82.352941%,69.803922%);fill-opacity:1;" d="M 96.53125 190.0625 C 73.835938 190.0625 78.53125 218.679688 78.3125 250.503906 L 96.53125 250.503906 Z M 96.53125 190.0625 "/>
<path style=" stroke:none;fill-rule:nonzero;fill:rgb(95.294118%,67.058824%,59.607843%);fill-opacity:1;" d="M 91.808594 208.386719 L 97.5 217.9375 L 94.652344 250.503906 L 86.71875 250.503906 C 86.515625 205.347656 91.808594 208.386719 91.808594 208.386719 Z M 91.808594 208.386719 "/>
<path style=" stroke:none;fill-rule:nonzero;fill:rgb(99.215686%,82.352941%,69.803922%);fill-opacity:1;" d="M 154.867188 268.039062 L 95.132812 268.039062 C 93.300781 268.039062 91.816406 266.550781 91.816406 264.714844 L 91.816406 193.390625 C 91.816406 191.554688 93.300781 190.066406 95.132812 190.0625 L 153.441406 190.0625 C 156.710938 190.0625 158.191406 191.980469 158.191406 195.042969 L 158.191406 264.703125 C 158.191406 265.589844 157.84375 266.4375 157.21875 267.0625 C 156.597656 267.691406 155.75 268.042969 154.867188 268.039062 Z M 154.867188 268.039062 "/>
<path style=" stroke:none;fill-rule:nonzero;fill:rgb(95.294118%,67.058824%,59.607843%);fill-opacity:1;" d="M 157.261719 192.042969 C 157.011719 191.734375 156.800781 191.398438 156.636719 191.039062 C 156.035156 190.570312 155.320312 190.265625 154.566406 190.160156 C 154.191406 190.101562 153.816406 190.074219 153.441406 190.074219 L 95.132812 190.074219 C 93.304688 190.078125 91.820312 191.558594 91.816406 193.390625 C 99.066406 196 112.636719 197.457031 125 197.457031 C 140.765625 197.457031 151.09375 195.117188 157.261719 192.042969 Z M 157.261719 192.042969 "/>
<path style="fill:none;stroke-width:12;stroke-linecap:square;stroke-linejoin:miter;stroke:rgb(34.901961%,17.647059%,23.921569%);stroke-opacity:1;stroke-miterlimit:10;" d="M 610 758.717238 C 700.765625 758.717238 682 872.955204 682.875 999.995432 L 632.734375 999.995432 " transform="matrix(0.25,0,0,0.250505,0,0)"/>
<path style="fill:none;stroke-width:12;stroke-linecap:square;stroke-linejoin:miter;stroke:rgb(34.901961%,17.647059%,23.921569%);stroke-opacity:1;stroke-miterlimit:10;" d="M 386.125 758.717238 C 295.34375 758.717238 314.125 872.955204 313.25 999.995432 L 363.3125 999.995432 " transform="matrix(0.25,0,0,0.250505,0,0)"/>
<path style="fill:none;stroke-width:12;stroke-linecap:butt;stroke-linejoin:miter;stroke:rgb(34.901961%,17.647059%,23.921569%);stroke-opacity:1;stroke-miterlimit:10;" d="M 380.53125 758.826392 L 613.765625 758.717238 " transform="matrix(0.25,0,0,0.250505,0,0)"/>
<path style=" stroke:none;fill-rule:nonzero;fill:rgb(95.294118%,67.058824%,59.607843%);fill-opacity:1;" d="M 95.132812 268.039062 L 124.289062 268.039062 C 97 268.039062 99.058594 210.128906 91.816406 210.128906 L 91.816406 264.703125 C 91.8125 265.585938 92.160156 266.4375 92.78125 267.0625 C 93.40625 267.6875 94.25 268.039062 95.132812 268.039062 Z M 95.132812 268.039062 "/>
<path style=" stroke:none;fill-rule:nonzero;fill:rgb(34.901961%,17.647059%,23.921569%);fill-opacity:1;" d="M 90.316406 215.648438 C 90.265625 214.726562 90.289062 213.808594 90.328125 212.890625 C 90.367188 211.976562 90.445312 211.050781 90.542969 210.136719 C 90.59375 209.675781 90.640625 209.21875 90.703125 208.757812 C 90.765625 208.296875 90.828125 207.835938 90.917969 207.375 C 91.09375 206.421875 91.398438 205.496094 91.816406 204.621094 C 92.234375 205.496094 92.535156 206.421875 92.710938 207.375 C 92.800781 207.835938 92.867188 208.296875 92.925781 208.757812 C 92.984375 209.21875 93.039062 209.675781 93.085938 210.136719 C 93.183594 211.054688 93.257812 211.976562 93.300781 212.890625 C 93.34375 213.808594 93.363281 214.730469 93.316406 215.648438 Z M 90.316406 215.648438 "/>
<path style="fill:none;stroke-width:12;stroke-linecap:butt;stroke-linejoin:miter;stroke:rgb(34.901961%,17.647059%,23.921569%);stroke-opacity:1;stroke-miterlimit:10;" d="M 632.734375 869.99244 L 632.734375 878.007497 C 633 912.001323 633 946.993133 632.734375 980.753056 C 632.734375 983.622259 632.734375 986.475869 632.734375 989.282699 L 632.734375 1056.693391 C 632.75 1060.217521 631.359375 1063.60131 628.859375 1066.09627 C 626.375 1068.59123 623 1069.994645 619.46875 1069.994645 L 380.53125 1069.994645 C 373.203125 1069.994645 367.265625 1064.053522 367.265625 1056.724578 L 367.265625 998.51405 C 367.265625 996.003497 367.265625 993.446163 367.265625 990.873236 C 367.015625 956.006174 367.015625 920.998771 367.265625 885.570344 L 367.265625 860.85465 " transform="matrix(0.25,0,0,0.250505,0,0)"/>
<path style=" stroke:none;fill-rule:nonzero;fill:rgb(34.901961%,17.647059%,23.921569%);fill-opacity:1;" d="M 156.683594 217.9375 C 156.636719 216.894531 156.660156 215.847656 156.699219 214.800781 C 156.738281 213.753906 156.816406 212.707031 156.914062 211.660156 C 156.960938 211.136719 157.015625 210.613281 157.074219 210.089844 C 157.136719 209.566406 157.199219 209.046875 157.289062 208.523438 C 157.460938 207.445312 157.761719 206.390625 158.183594 205.382812 C 158.605469 206.390625 158.910156 207.445312 159.082031 208.523438 C 159.171875 209.046875 159.238281 209.570312 159.296875 210.089844 C 159.351562 210.613281 159.40625 211.136719 159.457031 211.660156 C 159.550781 212.707031 159.628906 213.753906 159.671875 214.800781 C 159.710938 215.847656 159.734375 216.894531 159.683594 217.9375 Z M 156.683594 217.9375 "/>
<path style="fill:none;stroke-width:12;stroke-linecap:butt;stroke-linejoin:miter;stroke:rgb(34.901961%,17.647059%,23.921569%);stroke-opacity:1;stroke-miterlimit:10;" d="M 502.0625 878.86514 C 502.0625 907.557176 484.375 933.270854 457.59375 943.562563 C 430.8125 953.838678 400.453125 946.540921 381.25 925.224609 C 362.046875 903.908298 357.984375 872.955204 371 847.397461 " transform="matrix(0.25,0,0,0.250505,0,0)"/>
<path style=" stroke:none;fill-rule:nonzero;fill:rgb(99.215686%,82.352941%,69.803922%);fill-opacity:1;" d="M 92.75 212.277344 C 93.695312 210.421875 94.964844 208.753906 96.5 207.347656 "/>
<path style=" stroke:none;fill-rule:nonzero;fill:rgb(34.901961%,17.647059%,23.921569%);fill-opacity:1;" d="M 91.414062 211.589844 C 91.632812 211.070312 91.914062 210.578125 92.257812 210.128906 C 92.597656 209.675781 92.976562 209.257812 93.390625 208.875 C 93.601562 208.6875 93.8125 208.5 94.035156 208.328125 C 94.257812 208.148438 94.492188 207.988281 94.738281 207.847656 C 95.269531 207.539062 95.871094 207.367188 96.488281 207.34375 C 96.421875 207.933594 96.273438 208.507812 96.050781 209.050781 C 95.953125 209.300781 95.84375 209.523438 95.726562 209.746094 L 95.402344 210.414062 C 95.191406 210.855469 94.980469 211.289062 94.765625 211.714844 C 94.558594 212.144531 94.328125 212.5625 94.074219 212.96875 Z M 91.414062 211.589844 "/>
<path style=" stroke:none;fill-rule:nonzero;fill:rgb(99.215686%,82.352941%,69.803922%);fill-opacity:1;" d="M 122.332031 210.128906 C 124.40625 213.054688 125.519531 216.558594 125.515625 220.148438 "/>
<path style=" stroke:none;fill-rule:nonzero;fill:rgb(34.901961%,17.647059%,23.921569%);fill-opacity:1;" d="M 122.332031 210.128906 C 123.1875 210.59375 123.925781 211.238281 124.503906 212.019531 C 124.792969 212.398438 125.050781 212.800781 125.28125 213.21875 C 125.511719 213.636719 125.722656 214.070312 125.917969 214.511719 C 126.300781 215.394531 126.589844 216.320312 126.78125 217.265625 C 126.976562 218.214844 127.054688 219.183594 127.015625 220.152344 L 124.015625 220.152344 C 123.96875 219.339844 123.925781 218.53125 123.84375 217.714844 C 123.757812 216.902344 123.648438 216.09375 123.492188 215.277344 L 123.367188 214.664062 L 123.222656 214.050781 C 123.117188 213.644531 123.003906 213.234375 122.898438 212.816406 C 122.664062 211.929688 122.472656 211.035156 122.332031 210.128906 Z M 122.332031 210.128906 "/>
<path style=" stroke:none;fill-rule:nonzero;fill:rgb(99.215686%,82.352941%,69.803922%);fill-opacity:1;" d="M 160.414062 220.160156 C 160.417969 215.355469 158.429688 210.761719 154.925781 207.484375 "/>
<path style=" stroke:none;fill-rule:nonzero;fill:rgb(34.901961%,17.647059%,23.921569%);fill-opacity:1;" d="M 158.914062 220.160156 C 158.871094 219.078125 158.765625 218.003906 158.597656 216.9375 C 158.421875 215.859375 158.160156 214.800781 157.816406 213.761719 C 157.734375 213.511719 157.632812 213.246094 157.539062 212.984375 C 157.449219 212.722656 157.328125 212.472656 157.226562 212.210938 C 157.125 211.949219 156.992188 211.710938 156.882812 211.445312 L 156.515625 210.695312 C 156.015625 209.667969 155.476562 208.644531 154.925781 207.5 C 156.085938 207.996094 157.128906 208.730469 157.984375 209.65625 C 158.191406 209.894531 158.40625 210.125 158.601562 210.371094 C 158.792969 210.621094 158.984375 210.871094 159.164062 211.125 C 159.339844 211.375 159.519531 211.648438 159.679688 211.917969 C 159.839844 212.191406 160.007812 212.464844 160.148438 212.75 C 160.746094 213.882812 161.199219 215.085938 161.5 216.332031 C 161.808594 217.582031 161.945312 218.871094 161.90625 220.160156 Z M 158.914062 220.160156 "/>
<path style="fill:none;stroke-width:12;stroke-linecap:butt;stroke-linejoin:miter;stroke:rgb(34.901961%,17.647059%,23.921569%);stroke-opacity:1;stroke-miterlimit:10;" d="M 503 878.86514 C 502.703125 903.814737 515.84375 927.017862 537.40625 939.570628 C 558.96875 952.138987 585.640625 952.138987 607.203125 939.570628 C 628.765625 927.017862 641.90625 903.814737 641.609375 878.86514 " transform="matrix(0.25,0,0,0.250505,0,0)"/>
<path style=" stroke:none;fill-rule:nonzero;fill:rgb(99.215686%,82.352941%,69.803922%);fill-opacity:1;" d="M 128.941406 210.128906 C 126.867188 213.054688 125.757812 216.558594 125.761719 220.148438 "/>
<path style=" stroke:none;fill-rule:nonzero;fill:rgb(34.901961%,17.647059%,23.921569%);fill-opacity:1;" d="M 128.941406 210.128906 C 128.800781 211.035156 128.609375 211.933594 128.375 212.820312 C 128.269531 213.238281 128.15625 213.648438 128.050781 214.054688 L 127.910156 214.671875 L 127.785156 215.28125 C 127.628906 216.097656 127.511719 216.910156 127.433594 217.722656 C 127.351562 218.53125 127.308594 219.34375 127.261719 220.160156 L 124.25 220.160156 C 124.210938 219.191406 124.289062 218.21875 124.484375 217.269531 C 124.675781 216.324219 124.964844 215.398438 125.351562 214.515625 C 125.542969 214.074219 125.753906 213.644531 125.984375 213.226562 C 126.214844 212.808594 126.472656 212.40625 126.761719 212.023438 C 127.339844 211.242188 128.085938 210.59375 128.941406 210.128906 Z M 128.941406 210.128906 "/>
<path style="fill:none;stroke-width:12;stroke-linecap:butt;stroke-linejoin:miter;stroke:rgb(34.901961%,17.647059%,23.921569%);stroke-opacity:1;stroke-miterlimit:10;" d="M 383.4375 837.54237 L 383.4375 758.717238 " transform="matrix(0.25,0,0,0.250505,0,0)"/>
<path style="fill:none;stroke-width:12;stroke-linecap:butt;stroke-linejoin:miter;stroke:rgb(34.901961%,17.647059%,23.921569%);stroke-opacity:1;stroke-miterlimit:10;" d="M 616.453125 837.54237 L 616.453125 758.717238 " transform="matrix(0.25,0,0,0.250505,0,0)"/>
<path style="fill-rule:nonzero;fill:rgb(38.823529%,21.568627%,28.627451%);fill-opacity:1;stroke-width:12;stroke-linecap:butt;stroke-linejoin:miter;stroke:rgb(34.901961%,17.647059%,23.921569%);stroke-opacity:1;stroke-miterlimit:10;" d="M 470.5 897.780053 L 524.40625 897.780053 L 524.40625 917.474641 C 506.65625 911.424364 488.6875 911.580299 470.5 917.474641 Z M 470.5 897.780053 " transform="matrix(0.25,0,0,0.250505,0,0)"/>
<path style="fill-rule:nonzero;fill:rgb(38.823529%,21.568627%,28.627451%);fill-opacity:1;stroke-width:12;stroke-linecap:butt;stroke-linejoin:miter;stroke:rgb(34.901961%,17.647059%,23.921569%);stroke-opacity:1;stroke-miterlimit:10;" d="M 638.09375 878.86514 C 638.125 861.306861 631.46875 844.403509 619.46875 831.585654 C 615.25 827.06354 575.203125 837.776273 551.65625 858.843088 C 528.546875 879.53566 508.4375 913.32677 511.3125 917.583795 C 528.34375 942.860856 559.890625 954.056987 589.03125 945.1531 C 618.1875 936.249212 638.09375 909.334835 638.09375 878.86514 Z M 638.09375 878.86514 " transform="matrix(0.25,0,0,0.250505,0,0)"/>
<path style=" stroke:none;fill-rule:nonzero;fill:rgb(100%,100%,100%);fill-opacity:1;" d="M 149.527344 212.527344 C 147.996094 213.445312 146.488281 214.324219 145.027344 215.28125 C 143.585938 216.207031 142.203125 217.226562 140.894531 218.332031 C 139.609375 219.449219 138.367188 220.667969 137.144531 221.90625 C 135.921875 223.140625 134.722656 224.410156 133.457031 225.679688 C 134.222656 224.066406 135.160156 222.542969 136.253906 221.128906 C 137.339844 219.691406 138.574219 218.371094 139.929688 217.1875 C 141.308594 216.019531 142.832031 215.03125 144.464844 214.25 C 146.070312 213.460938 147.773438 212.878906 149.527344 212.527344 Z M 149.527344 212.527344 "/>
<path style="fill-rule:nonzero;fill:rgb(38.823529%,21.568627%,28.627451%);fill-opacity:1;stroke-width:12;stroke-linecap:butt;stroke-linejoin:miter;stroke:rgb(34.901961%,17.647059%,23.921569%);stroke-opacity:1;stroke-miterlimit:10;" d="M 361.90625 878.86514 C 361.875 861.306861 368.53125 844.403509 380.53125 831.585654 C 384.75 827.06354 424.796875 837.776273 448.34375 858.843088 C 471.453125 879.53566 491.5625 913.32677 488.6875 917.583795 C 471.65625 942.860856 440.109375 954.056987 410.96875 945.1531 C 381.8125 936.249212 361.90625 909.334835 361.90625 878.86514 Z M 361.90625 878.86514 " transform="matrix(0.25,0,0,0.250505,0,0)"/>
<path style=" stroke:none;fill-rule:nonzero;fill:rgb(36.862745%,19.607843%,26.666667%);fill-opacity:1;" d="M 113.9375 235.203125 C 102.152344 235.203125 92.597656 225.628906 92.597656 213.820312 C 92.597656 213.09375 92.632812 212.363281 92.707031 211.640625 C 88.84375 218.515625 90.089844 227.140625 95.75 232.632812 C 101.40625 238.121094 110.046875 239.097656 116.785156 235.007812 C 115.839844 235.136719 114.890625 235.203125 113.9375 235.203125 Z M 113.9375 235.203125 "/>
<path style="fill:none;stroke-width:12;stroke-linecap:butt;stroke-linejoin:miter;stroke:rgb(34.901961%,17.647059%,23.921569%);stroke-opacity:1;stroke-miterlimit:10;" d="M 361.90625 878.86514 C 361.875 861.306861 368.53125 844.403509 380.53125 831.585654 C 384.75 827.06354 424.796875 837.776273 448.34375 858.843088 C 471.453125 879.53566 491.5625 913.32677 488.6875 917.583795 C 471.65625 942.860856 440.109375 954.056987 410.96875 945.1531 C 381.8125 936.249212 361.90625 909.334835 361.90625 878.86514 Z M 361.90625 878.86514 " transform="matrix(0.25,0,0,0.250505,0,0)"/>
<path style=" stroke:none;fill-rule:nonzero;fill:rgb(100%,100%,100%);fill-opacity:1;" d="M 100.472656 212.527344 C 102.226562 212.878906 103.929688 213.457031 105.535156 214.246094 C 107.167969 215.027344 108.691406 216.015625 110.070312 217.1875 C 111.421875 218.371094 112.648438 219.691406 113.734375 221.125 C 114.824219 222.535156 115.761719 224.0625 116.527344 225.675781 C 115.261719 224.421875 114.066406 223.136719 112.839844 221.898438 C 111.613281 220.664062 110.378906 219.445312 109.089844 218.328125 C 107.78125 217.21875 106.402344 216.199219 104.957031 215.277344 C 103.5 214.324219 102 213.445312 100.472656 212.527344 Z M 100.472656 212.527344 "/>
<path style=" stroke:none;fill-rule:nonzero;fill:rgb(38.823529%,21.568627%,28.627451%);fill-opacity:1;" d="M 153.441406 189.921875 L 139.886719 189.921875 L 139.886719 189.949219 L 147.25 189.949219 C 147.25 192.230469 147.074219 194.511719 146.71875 196.765625 C 146.554688 197.863281 146.339844 198.9375 146.078125 199.992188 C 145.320312 203.03125 144.078125 205.925781 142.398438 208.566406 C 141.894531 209.351562 141.34375 210.101562 140.746094 210.820312 C 131.484375 220.089844 116.761719 220.589844 107.8125 210.523438 C 106.820312 209.324219 105.945312 208.03125 105.199219 206.667969 C 103.535156 203.582031 102.402344 200.238281 101.851562 196.777344 C 101.683594 195.679688 101.550781 194.5625 101.453125 193.421875 C 101.367188 192.285156 101.320312 191.128906 101.320312 189.960938 L 108.6875 189.960938 L 108.6875 189.933594 L 95.132812 189.933594 C 95.335938 195.519531 94.734375 208.882812 92.855469 211.097656 L 91.816406 264.574219 C 91.816406 266.410156 93.300781 267.898438 95.132812 267.898438 L 154.867188 267.898438 C 156.699219 267.898438 158.183594 266.410156 158.183594 264.574219 L 157.589844 210.628906 C 155.152344 210.613281 153.355469 196.164062 153.441406 189.921875 Z M 153.441406 189.921875 "/>
<path style=" stroke:none;fill-rule:nonzero;fill:rgb(36.862745%,19.607843%,26.666667%);fill-opacity:1;" d="M 158.183594 208.246094 L 152.488281 217.789062 L 155.335938 250.363281 L 158.234375 250.363281 L 158.234375 223.894531 Z M 158.183594 208.246094 "/>
<path style=" stroke:none;fill-rule:nonzero;fill:rgb(36.862745%,19.607843%,26.666667%);fill-opacity:1;" d="M 95.132812 267.886719 L 124.289062 267.886719 C 96.988281 267.886719 99.058594 209.984375 91.816406 209.984375 L 91.816406 264.5625 C 91.816406 266.398438 93.300781 267.886719 95.132812 267.886719 Z M 95.132812 267.886719 "/>
<path style=" stroke:none;fill-rule:nonzero;fill:rgb(34.901961%,17.647059%,23.921569%);fill-opacity:1;" d="M 90.316406 215.535156 C 90.261719 214.84375 90.253906 214.148438 90.289062 213.457031 C 90.320312 212.765625 90.378906 212.070312 90.46875 211.375 C 90.511719 211.027344 90.554688 210.683594 90.609375 210.335938 C 90.664062 209.984375 90.71875 209.640625 90.804688 209.292969 C 90.976562 208.550781 91.265625 207.847656 91.664062 207.199219 C 92.085938 207.832031 92.402344 208.527344 92.597656 209.257812 C 92.695312 209.605469 92.765625 209.949219 92.828125 210.292969 C 92.890625 210.636719 92.953125 210.984375 93.011719 211.332031 C 93.121094 212.019531 93.207031 212.710938 93.261719 213.402344 C 93.324219 214.09375 93.339844 214.785156 93.3125 215.480469 Z M 90.316406 215.535156 "/>
<path style="fill:none;stroke-width:12;stroke-linecap:butt;stroke-linejoin:miter;stroke:rgb(34.901961%,17.647059%,23.921569%);stroke-opacity:1;stroke-miterlimit:10;" d="M 632.734375 869.399887 L 632.734375 877.399351 C 633 911.393177 633 946.40058 632.734375 980.160503 C 632.734375 983.029706 632.734375 985.883317 632.734375 988.690146 L 632.734375 1056.100838 C 632.734375 1063.429782 626.796875 1069.370905 619.46875 1069.370905 L 380.53125 1069.370905 C 373.203125 1069.370905 367.265625 1063.429782 367.265625 1056.100838 L 367.265625 997.999464 C 367.265625 995.488911 367.265625 992.947171 367.265625 990.343057 C 367.015625 955.491589 367.015625 920.484186 367.265625 885.055759 L 367.265625 860.293284 " transform="matrix(0.25,0,0,0.250505,0,0)"/>
<path style=" stroke:none;fill-rule:nonzero;fill:rgb(34.901961%,17.647059%,23.921569%);fill-opacity:1;" d="M 156.691406 217.785156 C 156.699219 217.070312 156.753906 216.355469 156.851562 215.648438 C 156.949219 214.9375 157.070312 214.230469 157.21875 213.527344 C 157.292969 213.171875 157.367188 212.820312 157.453125 212.46875 C 157.539062 212.117188 157.625 211.765625 157.738281 211.414062 C 157.976562 210.671875 158.328125 209.972656 158.785156 209.339844 C 159.152344 210.027344 159.40625 210.769531 159.535156 211.539062 C 159.601562 211.902344 159.640625 212.261719 159.671875 212.625 C 159.703125 212.984375 159.734375 213.34375 159.761719 213.703125 C 159.804688 214.421875 159.828125 215.140625 159.824219 215.855469 C 159.824219 216.570312 159.777344 217.285156 159.6875 217.996094 Z M 156.691406 217.785156 "/>
<path style="fill:none;stroke-width:12;stroke-linecap:butt;stroke-linejoin:miter;stroke:rgb(34.901961%,17.647059%,23.921569%);stroke-opacity:1;stroke-miterlimit:10;" d="M 368.09375 833.004662 C 389.6875 827.73406 380.53125 758.265026 380.53125 758.265026 L 613.765625 758.171465 C 613.765625 758.171465 617.6875 834.782321 632.9375 841.097688 " transform="matrix(0.25,0,0,0.250505,0,0)"/>
<path style="fill:none;stroke-width:12;stroke-linecap:butt;stroke-linejoin:miter;stroke:rgb(34.901961%,17.647059%,23.921569%);stroke-opacity:1;stroke-miterlimit:10;" d="M 589 758.265026 C 589 767.371629 588.296875 776.478232 586.890625 785.47568 C 586.21875 789.857453 585.359375 794.145665 584.3125 798.35591 C 581.28125 810.487651 576.3125 822.042433 569.609375 832.583638 C 567.59375 835.717931 565.390625 838.711883 563 841.581086 C 525.9375 878.584457 467.046875 880.580425 431.265625 840.39598 C 427.296875 835.608776 423.796875 830.447329 420.796875 825.005198 C 414.140625 812.686334 409.609375 799.3383 407.40625 785.522461 C 406.734375 781.140688 406.203125 776.680948 405.8125 772.127646 C 405.46875 767.589938 405.28125 762.974263 405.28125 758.311807 " transform="matrix(0.25,0,0,0.250505,0,0)"/>
<path style="fill-rule:nonzero;fill:rgb(0%,0%,0%);fill-opacity:1;stroke-width:16;stroke-linecap:butt;stroke-linejoin:miter;stroke:rgb(100%,100%,100%);stroke-opacity:1;stroke-miterlimit:4;" d="M 566.875 917.835181 C 566.875 908.962481 555.78125 900.573179 538.765625 895.364951 C 542.703125 878.024981 540.953125 864.224735 533.265625 859.811775 C 531.46875 858.62667 529.328125 858.065304 527.1875 858.252426 C 519.1875 858.377174 509.875 863.600995 499.953125 872.863533 C 490 863.647776 479 858.205645 472.703125 858.36158 C 469.546875 858.455141 468.34375 858.876166 466.546875 859.92093 C 458.875 864.33389 457.171875 878.102949 461.125 895.396138 C 444.125 900.61996 433.125 908.993668 433.125 917.835181 C 433.125 926.661101 444.21875 935.097184 461.234375 940.305412 C 457.296875 957.645382 459.046875 971.430034 466.734375 975.842994 C 468.609375 976.903352 470.71875 977.433531 472.875 977.38675 C 480.375 977.38675 490.1875 972.022587 500.109375 962.760049 C 510.03125 971.975806 519.84375 977.277596 527.34375 977.277596 C 529.5 977.324376 531.625 976.794197 533.515625 975.733839 C 541.171875 971.32088 542.890625 957.551821 538.9375 940.274225 C 555.84375 935.065997 566.875 926.661101 566.875 917.835181 Z M 527.15625 864.33389 C 528.234375 864.302703 529.296875 864.552199 530.265625 865.051191 C 533.96875 867.1875 535.578125 875.280525 534.328125 885.696982 C 534.03125 888.254316 533.546875 890.951991 532.9375 893.696447 C 527.234375 892.308625 521.453125 891.310641 515.625 890.686901 C 512.140625 885.899698 508.359375 881.346396 504.28125 877.058184 C 513.15625 868.871598 521.484375 864.349483 527.15625 864.33389 Z M 475.84375 931.791362 C 477.125 933.974452 478.4375 936.095168 479.765625 938.169103 C 475.90625 937.607737 472.15625 936.890436 468.59375 936.0172 C 469.59375 932.49307 470.84375 928.875378 472.265625 925.257686 C 473.390625 927.425183 474.5625 929.608272 475.84375 931.791362 Z M 468.515625 899.637569 C 472.078125 898.79552 475.84375 898.062626 479.734375 897.485667 C 478.40625 899.590789 477.0625 901.742692 475.8125 903.956968 C 474.5625 906.155651 473.390625 908.307554 472.265625 910.490644 C 470.84375 906.935326 469.578125 903.317635 468.515625 899.637569 Z M 475.453125 917.913149 C 477.15625 914.26427 479.0625 910.599798 481.109375 907.028887 C 483.15625 903.457976 485.40625 899.855878 487.6875 896.612431 C 491.734375 896.25378 495.859375 896.066658 500 896.066658 C 504.140625 896.066658 508.234375 896.25378 512.265625 896.596837 C 514.53125 899.824691 516.734375 903.302041 518.875 906.95092 C 521 910.599798 522.875 914.155116 524.546875 917.803994 C 522.8125 921.452873 520.9375 925.117345 518.890625 928.672663 C 516.84375 932.243574 514.59375 935.845672 512.3125 939.104713 C 508.265625 939.44777 504.140625 939.634892 500 939.634892 C 495.859375 939.634892 491.765625 939.44777 487.734375 939.120306 C 485.46875 935.876859 483.265625 932.415102 481.125 928.766224 C 479 925.101752 477.1875 921.562027 475.453125 917.913149 Z M 524.15625 931.713395 C 525.40625 929.530305 526.578125 927.316028 527.703125 925.132939 C 529.140625 928.688256 530.390625 932.321541 531.453125 936.001607 C 527.890625 936.874842 524.125 937.607737 520.234375 938.184696 C 521.5625 936.063981 522.90625 933.927671 524.15625 931.713395 Z M 524.15625 903.863407 C 522.90625 901.695911 521.5625 899.559602 520.234375 897.485667 C 524.109375 898.062626 527.84375 898.779927 531.40625 899.637569 C 530.40625 903.1617 529.15625 906.794985 527.734375 910.412676 C 526.578125 908.229587 525.40625 906.046497 524.125 903.863407 Z M 507.5 890.156723 C 505.046875 890.047568 502.5 889.954007 500 889.954007 C 497.5 889.954007 494.90625 890.016381 492.421875 890.156723 C 494.765625 887.11599 497.265625 884.200006 499.921875 881.424364 C 502.59375 884.200006 505.125 887.11599 507.5 890.156723 Z M 469.5625 865.144752 C 470.53125 864.630166 471.625 864.396264 472.703125 864.443044 C 478.34375 864.443044 486.703125 868.933972 495.609375 877.151745 C 491.546875 881.424364 487.796875 885.962072 484.34375 890.749275 C 478.515625 891.357422 472.71875 892.355406 467.015625 893.743227 C 466.375 891.029958 465.921875 888.379064 465.59375 885.852917 C 464.3125 875.43646 465.890625 867.327841 469.5625 865.175939 Z M 462.703125 934.379883 C 460 933.52224 457.4375 932.602224 455.0625 931.60424 C 445.40625 927.487557 439.171875 922.076613 439.171875 917.803994 C 439.171875 913.515783 445.40625 908.089245 455.0625 904.003749 C 457.40625 903.005765 459.96875 902.085748 462.625 901.2437 C 464.28125 906.919733 466.328125 912.455425 468.75 917.850775 C 466.359375 923.230532 464.34375 928.766224 462.703125 934.41107 Z M 472.8125 971.289693 C 471.75 971.305286 470.6875 971.05579 469.734375 970.556798 C 466.03125 968.436082 464.421875 960.327463 465.671875 949.9266 C 465.96875 947.353673 466.453125 944.655998 467.0625 941.927136 C 472.765625 943.299364 478.546875 944.312941 484.375 944.921087 C 487.84375 949.708291 491.640625 954.277186 495.71875 958.565398 C 486.828125 966.798765 478.484375 971.32088 472.8125 971.32088 Z M 500.046875 954.199219 C 497.375 951.423576 494.84375 948.507592 492.46875 945.46686 C 494.9375 945.576014 497.46875 945.653982 499.96875 945.653982 C 502.46875 945.653982 505.0625 945.607201 507.546875 945.46686 C 505.21875 948.523185 502.703125 951.454763 500.046875 954.230406 Z M 530.4375 970.447644 C 529.46875 970.962229 528.375 971.211725 527.296875 971.164945 C 521.65625 971.164945 513.296875 966.658424 504.390625 958.456244 C 508.453125 954.183625 512.203125 949.630324 515.65625 944.84312 C 521.484375 944.250567 527.28125 943.23699 532.984375 941.849168 C 533.609375 944.468876 534.078125 947.119771 534.40625 949.786259 C 535.6875 960.233902 534.109375 968.326928 530.4375 970.478831 Z M 544.90625 931.60424 C 542.5625 932.602224 540 933.506647 537.34375 934.348696 C 535.6875 928.688256 533.640625 923.136971 531.21875 917.74162 C 533.59375 912.377457 535.59375 906.857359 537.21875 901.212513 C 539.921875 902.070155 542.484375 902.990171 544.875 904.003749 C 554.546875 908.120432 560.78125 913.515783 560.78125 917.803994 C 560.78125 922.076613 554.5625 927.534337 544.90625 931.635427 Z M 544.90625 931.60424 " transform="matrix(0.25,0,0,0.250505,0,7.515152)"/>
<path style="fill-rule:nonzero;fill:rgb(0%,0%,0%);fill-opacity:1;stroke-width:24;stroke-linecap:butt;stroke-linejoin:miter;stroke:rgb(100%,100%,100%);stroke-opacity:1;stroke-miterlimit:4;" d="M 512.4375 917.835181 C 512.4375 924.711914 506.84375 930.294386 499.96875 930.294386 C 493.09375 930.294386 487.515625 924.711914 487.515625 917.835181 C 487.515625 910.942855 493.09375 905.375977 499.96875 905.375977 C 506.84375 905.375977 512.4375 910.942855 512.4375 917.835181 Z M 512.4375 917.835181 " transform="matrix(0.25,0,0,0.250505,0,7.515152)"/>
<path style=" stroke:none;fill-rule:nonzero;fill:rgb(38.039216%,85.490196%,98.431373%);fill-opacity:1;" d="M 141.71875 237.4375 C 141.71875 235.214844 138.945312 233.113281 134.691406 231.808594 C 135.675781 227.464844 135.238281 224.007812 133.316406 222.902344 C 132.867188 222.605469 132.332031 222.464844 131.796875 222.511719 C 129.796875 222.542969 127.46875 223.851562 124.988281 226.171875 C 122.5 223.863281 119.75 222.5 118.175781 222.539062 C 117.386719 222.5625 117.085938 222.667969 116.636719 222.929688 C 114.71875 224.035156 114.292969 227.484375 115.28125 231.816406 C 111.03125 233.125 108.28125 235.222656 108.28125 237.4375 C 108.28125 239.648438 111.054688 241.761719 115.308594 243.066406 C 114.324219 247.410156 114.761719 250.863281 116.683594 251.96875 C 117.152344 252.234375 117.679688 252.367188 118.21875 252.355469 C 120.09375 252.355469 122.546875 251.011719 125.027344 248.691406 C 127.507812 251 129.960938 252.328125 131.835938 252.328125 C 132.375 252.339844 132.90625 252.207031 133.378906 251.941406 C 135.292969 250.835938 135.722656 247.386719 134.734375 243.058594 C 138.960938 241.753906 141.71875 239.648438 141.71875 237.4375 Z M 131.789062 224.035156 C 132.058594 224.027344 132.324219 224.089844 132.566406 224.214844 C 133.492188 224.75 133.894531 226.777344 133.582031 229.386719 C 133.507812 230.027344 133.386719 230.703125 133.234375 231.390625 C 131.808594 231.042969 130.363281 230.792969 128.90625 230.636719 C 128.035156 229.4375 127.089844 228.296875 126.070312 227.222656 C 128.289062 225.171875 130.371094 224.039062 131.789062 224.035156 Z M 118.960938 240.933594 C 119.28125 241.480469 119.609375 242.011719 119.941406 242.53125 C 118.976562 242.390625 118.039062 242.210938 117.148438 241.992188 C 117.398438 241.109375 117.710938 240.203125 118.066406 239.296875 C 118.347656 239.839844 118.640625 240.386719 118.960938 240.933594 Z M 117.128906 232.878906 C 118.019531 232.667969 118.960938 232.484375 119.933594 232.339844 C 119.601562 232.867188 119.265625 233.40625 118.953125 233.960938 C 118.640625 234.511719 118.347656 235.050781 118.066406 235.597656 C 117.710938 234.707031 117.394531 233.800781 117.128906 232.878906 Z M 118.863281 237.457031 C 119.289062 236.542969 119.765625 235.625 120.277344 234.730469 C 120.789062 233.835938 121.351562 232.933594 121.921875 232.121094 C 122.933594 232.03125 123.964844 231.984375 125 231.984375 C 126.035156 231.984375 127.058594 232.03125 128.066406 232.117188 C 128.632812 232.925781 129.183594 233.796875 129.71875 234.710938 C 130.25 235.625 130.71875 236.515625 131.136719 237.429688 C 130.703125 238.34375 130.234375 239.261719 129.722656 240.152344 C 129.210938 241.046875 128.648438 241.949219 128.078125 242.765625 C 127.066406 242.851562 126.035156 242.898438 125 242.898438 C 123.964844 242.898438 122.941406 242.851562 121.933594 242.769531 C 121.367188 241.957031 120.816406 241.089844 120.28125 240.175781 C 119.75 239.257812 119.296875 238.371094 118.863281 237.457031 Z M 131.039062 240.914062 C 131.351562 240.367188 131.644531 239.8125 131.925781 239.265625 C 132.285156 240.15625 132.597656 241.066406 132.863281 241.988281 C 131.972656 242.207031 131.03125 242.390625 130.058594 242.535156 C 130.390625 242.003906 130.726562 241.46875 131.039062 240.914062 Z M 131.039062 233.9375 C 130.726562 233.394531 130.390625 232.859375 130.058594 232.339844 C 131.027344 232.484375 131.960938 232.664062 132.851562 232.878906 C 132.601562 233.761719 132.289062 234.671875 131.933594 235.578125 C 131.644531 235.03125 131.351562 234.484375 131.03125 233.9375 Z M 126.875 230.503906 C 126.261719 230.476562 125.625 230.453125 125 230.453125 C 124.375 230.453125 123.726562 230.46875 123.105469 230.503906 C 123.691406 229.742188 124.316406 229.011719 124.980469 228.316406 C 125.648438 229.011719 126.28125 229.742188 126.875 230.503906 Z M 117.390625 224.238281 C 117.632812 224.109375 117.90625 224.050781 118.175781 224.0625 C 119.585938 224.0625 121.675781 225.1875 123.902344 227.246094 C 122.886719 228.316406 121.949219 229.453125 121.085938 230.652344 C 119.628906 230.804688 118.179688 231.054688 116.753906 231.402344 C 116.59375 230.722656 116.480469 230.058594 116.398438 229.425781 C 116.078125 226.816406 116.472656 224.785156 117.390625 224.246094 Z M 115.675781 241.582031 C 115 241.367188 114.359375 241.136719 113.765625 240.886719 C 111.351562 239.855469 109.792969 238.5 109.792969 237.429688 C 109.792969 236.355469 111.351562 234.996094 113.765625 233.972656 C 114.351562 233.722656 114.992188 233.492188 115.65625 233.28125 C 116.070312 234.703125 116.582031 236.089844 117.1875 237.441406 C 116.589844 238.789062 116.085938 240.175781 115.675781 241.589844 Z M 118.203125 250.828125 C 117.9375 250.832031 117.671875 250.769531 117.433594 250.644531 C 116.507812 250.113281 116.105469 248.082031 116.417969 245.476562 C 116.492188 244.832031 116.613281 244.15625 116.765625 243.472656 C 118.191406 243.816406 119.636719 244.070312 121.09375 244.222656 C 121.960938 245.421875 122.910156 246.566406 123.929688 247.640625 C 121.707031 249.703125 119.621094 250.835938 118.203125 250.835938 Z M 125.011719 246.546875 C 124.34375 245.851562 123.710938 245.121094 123.117188 244.359375 C 123.734375 244.386719 124.367188 244.40625 124.992188 244.40625 C 125.617188 244.40625 126.265625 244.394531 126.886719 244.359375 C 126.304688 245.125 125.675781 245.859375 125.011719 246.554688 Z M 132.609375 250.617188 C 132.367188 250.746094 132.09375 250.808594 131.824219 250.796875 C 130.414062 250.796875 128.324219 249.667969 126.097656 247.613281 C 127.113281 246.542969 128.050781 245.402344 128.914062 244.203125 C 130.371094 244.054688 131.820312 243.800781 133.246094 243.453125 C 133.402344 244.109375 133.519531 244.773438 133.601562 245.441406 C 133.921875 248.058594 133.527344 250.085938 132.609375 250.625 Z M 136.226562 240.886719 C 135.640625 241.136719 135 241.363281 134.335938 241.574219 C 133.921875 240.15625 133.410156 238.765625 132.804688 237.414062 C 133.398438 236.070312 133.898438 234.6875 134.304688 233.273438 C 134.980469 233.488281 135.621094 233.71875 136.21875 233.972656 C 138.636719 235.003906 140.195312 236.355469 140.195312 237.429688 C 140.195312 238.5 138.640625 239.867188 136.226562 240.894531 Z M 136.226562 240.886719 "/>
<path style=" stroke:none;fill-rule:nonzero;fill:rgb(38.039216%,85.490196%,98.431373%);fill-opacity:1;" d="M 128.109375 237.4375 C 128.109375 239.160156 126.710938 240.558594 124.992188 240.558594 C 123.273438 240.558594 121.878906 239.160156 121.878906 237.4375 C 121.878906 235.710938 123.273438 234.316406 124.992188 234.316406 C 126.710938 234.316406 128.109375 235.710938 128.109375 237.4375 Z M 128.109375 237.4375 "/>
<use xlink:href="#surface5" mask="url(#mask0)"/>
<use xlink:href="#surface8" mask="url(#mask1)"/>
<path style=" stroke:none;fill-rule:nonzero;fill:rgb(38.823529%,21.568627%,28.627451%);fill-opacity:1;" d="M 101.75 236.429688 C 96.332031 234.402344 92.28125 229.804688 90.945312 224.164062 C 89.613281 218.527344 91.171875 212.59375 95.105469 208.34375 "/>
<path style=" stroke:none;fill-rule:nonzero;fill:rgb(34.901961%,17.647059%,23.921569%);fill-opacity:1;" d="M 101.75 236.429688 C 98.792969 235.945312 96.066406 234.542969 93.949219 232.421875 L 93.542969 232.019531 C 93.410156 231.886719 93.292969 231.738281 93.160156 231.597656 C 93.027344 231.457031 92.910156 231.308594 92.789062 231.164062 C 92.664062 231.019531 92.542969 230.871094 92.433594 230.714844 C 92.207031 230.40625 91.980469 230.097656 91.761719 229.785156 L 91.171875 228.796875 C 90.421875 227.449219 89.859375 226.007812 89.492188 224.507812 C 89.152344 223.003906 89.011719 221.464844 89.070312 219.921875 C 89.136719 218.394531 89.425781 216.878906 89.921875 215.433594 C 89.984375 215.253906 90.042969 215.074219 90.109375 214.894531 L 90.328125 214.371094 C 90.46875 214.019531 90.644531 213.683594 90.808594 213.34375 C 91.15625 212.679688 91.550781 212.039062 91.992188 211.433594 C 92.203125 211.128906 92.449219 210.84375 92.679688 210.558594 C 92.914062 210.273438 93.164062 210 93.429688 209.75 C 93.945312 209.234375 94.511719 208.765625 95.113281 208.351562 C 93.664062 210.855469 92.636719 213.40625 92.199219 216.03125 C 91.96875 217.324219 91.871094 218.632812 91.902344 219.945312 C 91.949219 221.242188 92.117188 222.535156 92.402344 223.804688 C 92.710938 225.066406 93.140625 226.292969 93.683594 227.472656 C 94.238281 228.664062 94.914062 229.796875 95.703125 230.847656 C 96.5 231.933594 97.40625 232.9375 98.40625 233.839844 C 99.457031 234.785156 100.574219 235.648438 101.75 236.429688 Z M 101.75 236.429688 "/>
<path style=" stroke:none;fill-rule:nonzero;fill:rgb(38.823529%,21.568627%,28.627451%);fill-opacity:1;" d="M 148.261719 236.429688 C 153.679688 234.398438 157.726562 229.800781 159.058594 224.160156 C 160.390625 218.523438 158.828125 212.589844 154.894531 208.34375 "/>
<path style=" stroke:none;fill-rule:nonzero;fill:rgb(34.901961%,17.647059%,23.921569%);fill-opacity:1;" d="M 148.261719 236.429688 C 149.4375 235.652344 150.550781 234.792969 151.601562 233.851562 C 152.601562 232.949219 153.503906 231.945312 154.300781 230.859375 C 155.089844 229.804688 155.765625 228.675781 156.324219 227.484375 C 156.867188 226.304688 157.292969 225.074219 157.601562 223.8125 C 157.886719 222.546875 158.054688 221.253906 158.101562 219.953125 C 158.136719 218.636719 158.042969 217.324219 157.816406 216.027344 C 157.375 213.402344 156.347656 210.859375 154.898438 208.34375 C 155.503906 208.757812 156.066406 209.226562 156.582031 209.746094 C 156.851562 209.996094 157.082031 210.28125 157.332031 210.554688 C 157.582031 210.828125 157.808594 211.125 158.019531 211.429688 C 158.460938 212.035156 158.859375 212.675781 159.203125 213.339844 C 159.367188 213.679688 159.546875 214.015625 159.683594 214.363281 L 159.902344 214.890625 C 159.96875 215.070312 160.027344 215.25 160.09375 215.425781 C 160.589844 216.875 160.875 218.386719 160.941406 219.917969 C 161 221.457031 160.859375 223 160.519531 224.503906 C 160.15625 226 159.589844 227.445312 158.84375 228.792969 L 158.25 229.777344 C 158.03125 230.09375 157.804688 230.402344 157.578125 230.710938 C 157.46875 230.867188 157.347656 231.015625 157.222656 231.160156 C 157.101562 231.304688 156.972656 231.449219 156.851562 231.59375 C 156.734375 231.734375 156.601562 231.878906 156.46875 232.015625 L 156.066406 232.417969 C 153.949219 234.539062 151.21875 235.945312 148.261719 236.429688 Z M 148.261719 236.429688 "/>
<path style=" stroke:none;fill-rule:nonzero;fill:rgb(95.294118%,67.058824%,59.607843%);fill-opacity:1;" d="M 67.851562 142.417969 C 67.601562 135.316406 72.351562 129.304688 78.671875 126.496094 C 79.332031 126.226562 80.015625 126 80.710938 125.820312 C 84.214844 124.953125 87.898438 125.191406 91.261719 126.503906 C 92.03125 126.800781 92.777344 127.148438 93.496094 127.546875 C 100.878906 131.527344 104.191406 140.886719 101.335938 148.453125 C 101.046875 149.21875 100.695312 149.957031 100.289062 150.664062 C 99.292969 152.746094 97.789062 154.539062 95.914062 155.882812 C 95.285156 156.34375 94.632812 156.761719 93.949219 157.132812 C 87.105469 160.390625 77.855469 159.390625 72.335938 154.277344 C 71.785156 153.691406 71.273438 153.066406 70.808594 152.40625 C 70.28125 151.65625 69.8125 150.859375 69.417969 150.027344 C 68.578125 148.324219 68.097656 146.464844 68 144.566406 C 67.910156 143.855469 67.859375 143.136719 67.851562 142.417969 Z M 67.851562 142.417969 "/>
<path style="fill-rule:nonzero;fill:rgb(100%,100%,100%);fill-opacity:1;stroke-width:12;stroke-linecap:butt;stroke-linejoin:miter;stroke:rgb(34.901961%,17.647059%,23.921569%);stroke-opacity:1;stroke-miterlimit:10;" d="M 269.765625 550.185389 C 268.765625 521.820817 287.765625 497.822423 313.046875 486.626292 C 315.703125 485.534747 318.421875 484.630324 321.203125 483.913023 C 335.21875 480.435673 349.953125 481.371283 363.421875 486.595105 C 366.484375 487.78021 369.46875 489.168032 372.34375 490.758569 C 401.875 506.648343 415.125 544.025958 403.703125 574.21497 C 402.546875 577.271295 401.15625 580.218466 399.515625 583.04089 C 398.140625 585.754158 396.5625 588.358272 394.8125 590.837639 C 393.078125 593.301411 391.1875 595.640436 389.125 597.839119 C 386.90625 600.037802 384.53125 602.064957 382.015625 603.90499 C 379.515625 605.760616 376.890625 607.42912 374.15625 608.910503 C 346.78125 621.91548 309.78125 617.907951 287.71875 597.527249 C 285.515625 595.172631 283.46875 592.677671 281.609375 590.04237 C 279.484375 587.032825 277.625 583.851752 276.03125 580.54593 C 272.671875 573.762758 270.71875 566.37144 270.3125 558.808594 C 269.96875 555.93939 269.78125 553.070186 269.765625 550.185389 Z M 269.765625 550.185389 " transform="matrix(0.25,0,0,0.250505,0,0)"/>
<path style=" stroke:none;fill-rule:nonzero;fill:rgb(34.901961%,17.647059%,23.921569%);fill-opacity:1;" d="M 87.6875 137.976562 C 87.6875 139.667969 86.316406 141.042969 84.628906 141.042969 C 82.9375 141.042969 81.566406 139.667969 81.566406 137.976562 C 81.566406 136.28125 82.9375 134.910156 84.628906 134.910156 C 86.316406 134.910156 87.6875 136.28125 87.6875 137.976562 Z M 87.6875 137.976562 "/>
<path style=" stroke:none;fill-rule:nonzero;fill:rgb(95.294118%,67.058824%,59.607843%);fill-opacity:1;" d="M 145.972656 140.402344 C 146.078125 136.609375 147.640625 132.863281 149.746094 130.046875 C 150.285156 129.289062 150.878906 128.578125 151.527344 127.910156 C 157.46875 121.707031 167.027344 120.753906 174.070312 125.667969 C 174.636719 126.066406 175.183594 126.496094 175.703125 126.953125 C 182.453125 132.328125 183.234375 142.769531 179.53125 150.308594 C 179.171875 150.90625 178.773438 151.480469 178.335938 152.027344 C 177.757812 152.753906 177.125 153.433594 176.441406 154.0625 C 171.375 158.53125 163.488281 159.605469 157.089844 157.175781 C 156.179688 156.828125 155.296875 156.410156 154.453125 155.921875 C 149.976562 153.222656 146.859375 148.132812 146.09375 142.839844 C 145.992188 142.03125 145.949219 141.214844 145.972656 140.402344 Z M 145.972656 140.402344 "/>
<path style="fill-rule:nonzero;fill:rgb(100%,100%,100%);fill-opacity:1;stroke-width:12;stroke-linecap:butt;stroke-linejoin:miter;stroke:rgb(34.901961%,17.647059%,23.921569%);stroke-opacity:1;stroke-miterlimit:10;" d="M 589.375 549.000284 C 589.796875 534.856981 595.796875 520.85402 603.90625 510.344002 C 605.984375 507.505985 608.28125 504.839497 610.765625 502.344538 C 633.96875 479.157006 670.328125 475.664062 697.53125 494.002016 C 699.71875 495.483398 701.8125 497.073935 703.8125 498.78922 C 729.8125 518.858052 732.8125 557.85739 718.546875 586.003654 C 717.171875 588.249118 715.625 590.401021 713.953125 592.428175 C 711.71875 595.141444 709.28125 597.683184 706.65625 600.022209 C 687.15625 616.707252 656.796875 620.745968 632.171875 611.654958 C 628.65625 610.345105 625.25 608.754568 622 606.898942 C 604.78125 596.825542 592.78125 577.817068 589.828125 558.044512 C 589.4375 555.050561 589.28125 552.025422 589.375 549.000284 Z M 589.375 549.000284 " transform="matrix(0.25,0,0,0.250505,0,0)"/>
<path style=" stroke:none;fill-rule:nonzero;fill:rgb(34.901961%,17.647059%,23.921569%);fill-opacity:1;" d="M 167.863281 137.976562 C 167.863281 139.667969 166.492188 141.042969 164.800781 141.042969 C 163.113281 141.042969 161.742188 139.667969 161.742188 137.976562 C 161.742188 136.28125 163.113281 134.910156 164.800781 134.910156 C 166.492188 134.910156 167.863281 136.28125 167.863281 137.976562 Z M 167.863281 137.976562 "/>
<path style=" stroke:none;fill-rule:evenodd;fill:rgb(34.901961%,17.647059%,23.921569%);fill-opacity:1;" d="M 60.972656 121.277344 C 62.382812 125.242188 66.199219 127.304688 69.324219 128.027344 C 72.585938 122.957031 83.484375 120.78125 91.664062 123.65625 C 98.613281 124.910156 88.960938 117.25 73.546875 121.402344 C 72.96875 121.613281 69.90625 122.140625 65.976562 119.101562 C 65.429688 118.675781 67.148438 122.535156 69.101562 124.109375 C 66.265625 124.050781 65.800781 124.054688 60.972656 121.277344 Z M 60.972656 121.277344 "/>
<path style=" stroke:none;fill-rule:evenodd;fill:rgb(34.901961%,17.647059%,23.921569%);fill-opacity:1;" d="M 180.300781 124.109375 C 182.257812 122.542969 183.976562 118.683594 183.425781 119.097656 C 179.496094 122.140625 176.425781 121.601562 175.859375 121.398438 C 160.441406 117.242188 150.789062 124.90625 157.738281 123.65625 C 165.921875 120.777344 176.816406 122.953125 180.082031 128.023438 C 183.207031 127.300781 187.023438 125.238281 188.433594 121.273438 C 183.605469 124.054688 183.140625 124.050781 180.300781 124.109375 Z M 180.300781 124.109375 "/>
<path style=" stroke:none;fill-rule:nonzero;fill:rgb(86.666667%,24.313725%,24.313725%);fill-opacity:1;" d="M 139.636719 160.933594 C 138.730469 160.933594 138.300781 160.605469 135.742188 158.230469 C 133.871094 156.496094 132.585938 155.636719 131.015625 155.359375 C 129.058594 155.015625 127.058594 155.140625 124.925781 157.285156 C 122.792969 155.140625 120.796875 155.03125 118.835938 155.359375 C 117.265625 155.636719 115.980469 156.496094 114.109375 158.230469 C 111.550781 160.605469 111.121094 160.933594 110.210938 160.933594 C 110.027344 160.933594 109.859375 161.046875 109.789062 161.21875 C 109.71875 161.390625 109.757812 161.589844 109.886719 161.722656 C 114.261719 166.105469 119.273438 168.300781 124.925781 168.304688 C 130.574219 168.308594 135.585938 166.113281 139.960938 161.722656 C 140.09375 161.589844 140.132812 161.390625 140.0625 161.21875 C 139.992188 161.046875 139.824219 160.933594 139.636719 160.933594 Z M 139.636719 160.933594 "/>
<path style=" stroke:none;fill-rule:nonzero;fill:rgb(76.862745%,20%,20%);fill-opacity:1;" d="M 139.890625 161.785156 L 139.753906 161.234375 C 122.113281 165.269531 110.210938 161.367188 110.210938 161.367188 L 109.769531 161.289062 C 109.730469 161.441406 109.773438 161.605469 109.886719 161.722656 C 114.261719 166.105469 119.273438 168.300781 124.925781 168.304688 C 130.539062 168.304688 135.527344 166.132812 139.890625 161.785156 Z M 139.890625 161.785156 "/>
<path style=" stroke:none;fill-rule:nonzero;fill:rgb(34.901961%,17.647059%,23.921569%);fill-opacity:1;" d="M 119.820312 162.925781 C 123.183594 162.691406 126.492188 162.566406 129.792969 162.175781 C 131.441406 161.984375 133.078125 161.738281 134.710938 161.457031 C 136.339844 161.175781 137.960938 160.855469 139.585938 160.507812 L 139.921875 161.972656 C 138.277344 162.363281 136.617188 162.679688 134.941406 162.925781 C 133.265625 163.171875 131.585938 163.34375 129.902344 163.441406 C 128.214844 163.535156 126.527344 163.578125 124.839844 163.507812 C 123.152344 163.449219 121.476562 163.253906 119.820312 162.925781 Z M 119.820312 162.925781 "/>
<path style=" stroke:none;fill-rule:nonzero;fill:rgb(34.901961%,17.647059%,23.921569%);fill-opacity:1;" d="M 110.449219 160.652344 C 110.871094 160.757812 111.339844 160.902344 111.792969 161.023438 C 112.246094 161.140625 112.703125 161.292969 113.164062 161.429688 C 113.625 161.566406 114.085938 161.707031 114.546875 161.875 C 115.023438 162.042969 115.480469 162.265625 115.910156 162.535156 C 115.417969 162.679688 114.910156 162.757812 114.398438 162.761719 C 113.898438 162.761719 113.410156 162.71875 112.914062 162.679688 C 112.421875 162.640625 111.933594 162.5625 111.445312 162.46875 C 110.949219 162.375 110.457031 162.246094 109.980469 162.078125 Z M 110.449219 160.652344 "/>
<path style="fill:none;stroke-width:8;stroke-linecap:butt;stroke-linejoin:miter;stroke:rgb(34.901961%,17.647059%,23.921569%);stroke-opacity:1;stroke-miterlimit:10;" d="M 558.546875 642.436523 C 554.921875 642.436523 553.203125 641.12667 542.96875 631.645823 C 535.484375 624.72231 530.4375 620.35613 524.0625 620.184602 C 512.84375 619.888325 504.90625 626.312847 499.296875 626.312847 C 493.6875 626.312847 488.84375 618.781187 475.296875 620.184602 C 468.953125 620.855122 463.875 624.72231 456.390625 631.645823 C 446.15625 641.12667 444.4375 642.436523 440.8125 642.436523 C 440.0625 642.436523 439.390625 642.888735 439.109375 643.574849 C 438.828125 644.260963 438.984375 645.056231 439.515625 645.58641 C 457.015625 663.082315 477.0625 671.845861 499.65625 671.861454 C 522.265625 671.877048 542.3125 663.113502 559.8125 645.58641 C 560.328125 645.056231 560.484375 644.276556 560.21875 643.590442 C 559.9375 642.904328 559.28125 642.452117 558.546875 642.436523 Z M 558.546875 642.436523 " transform="matrix(0.25,0,0,0.250505,0,0)"/>
<path style=" stroke:none;fill-rule:nonzero;fill:rgb(100%,100%,100%);fill-opacity:1;" d="M 131.015625 156.9375 C 129.96875 157.027344 128.941406 157.273438 127.96875 157.671875 C 127.484375 157.867188 127 158.074219 126.503906 158.277344 C 125.996094 158.511719 125.457031 158.660156 124.898438 158.714844 C 124.601562 158.71875 124.308594 158.664062 124.03125 158.554688 C 123.773438 158.457031 123.523438 158.339844 123.28125 158.203125 C 122.832031 157.945312 122.363281 157.707031 121.886719 157.496094 C 121.410156 157.296875 120.914062 157.148438 120.402344 157.0625 C 119.882812 156.976562 119.355469 156.933594 118.828125 156.9375 C 119.355469 156.832031 119.894531 156.789062 120.429688 156.816406 C 120.972656 156.847656 121.507812 156.953125 122.023438 157.128906 C 122.53125 157.3125 123.023438 157.527344 123.5 157.78125 C 123.96875 158.015625 124.425781 158.238281 124.878906 158.214844 C 125.378906 158.164062 125.867188 158.039062 126.328125 157.839844 C 126.828125 157.660156 127.328125 157.460938 127.828125 157.304688 C 128.851562 156.953125 129.9375 156.828125 131.015625 156.9375 Z M 131.015625 156.9375 "/>
<path style=" stroke:none;fill-rule:nonzero;fill:rgb(34.901961%,17.647059%,23.921569%);fill-opacity:1;" d="M 118.15625 163.417969 C 118.960938 163.417969 118.960938 162.167969 118.15625 162.167969 C 117.347656 162.167969 117.351562 163.417969 118.15625 163.417969 Z M 118.15625 163.417969 "/>
<path style=" stroke:none;fill-rule:nonzero;fill:rgb(95.294118%,67.058824%,59.607843%);fill-opacity:1;" d="M 72.558594 103.714844 L 182.367188 103.714844 L 182.367188 119.785156 L 72.558594 119.785156 Z M 72.558594 103.714844 "/>
<path style="fill-rule:nonzero;fill:rgb(34.901961%,17.647059%,23.921569%);fill-opacity:1;stroke-width:12;stroke-linecap:butt;stroke-linejoin:miter;stroke:rgb(34.901961%,17.647059%,23.921569%);stroke-opacity:1;stroke-miterlimit:10;" d="M 710 667.666803 C 706.859375 671.533991 703.625 675.323211 700.296875 679.034463 C 697.796875 681.794512 702.875 677.911731 710 667.666803 Z M 725 351.103201 C 694.5 296.697486 641.5 259.241904 580.21875 241.995495 L 573.875 240.295804 C 551.171875 234.011624 527.25 233.294323 502.546875 233.294323 C 475.859375 233.294323 450.09375 236.023185 425.78125 243.289756 L 421.515625 244.552829 C 389.15625 255.546245 359.0625 272.293662 332.671875 293.999811 C 329.75 296.385616 326.90625 298.833795 324.09375 301.313162 C 295.765625 325.015278 273.765625 355.017169 258.625 389.21371 C 257.15625 392.503938 255.78125 395.809759 254.46875 399.146768 C 250.5625 409.09542 247.421875 419.340348 245.0625 429.756804 C 213 556.344821 262.890625 634.000441 307.171875 681.60739 C 311.546875 686.301033 249.234375 579.750662 289.75 465.606256 C 297.484375 465.30998 309.984375 465.091671 325.9375 464.935736 L 341.4375 414.319241 L 358.875 464.701833 C 386.28125 464.577085 418.765625 464.545898 452.765625 464.577085 L 465.078125 412.214119 L 479 464.592679 C 553.375 464.73302 630.4375 465.122858 674.28125 465.372354 L 687.484375 413.19651 L 702.484375 465.528289 L 710.6875 465.575069 C 760.78125 572.000693 728.5 641.12667 710 667.666803 C 748.4375 620.246976 769.390625 561.038464 769.296875 500.005513 C 769.296875 413.586347 725 351.103201 725 351.103201 Z M 725 351.103201 " transform="matrix(0.25,0,0,0.250505,0,0)"/>
<path style=" stroke:none;fill-rule:nonzero;fill:rgb(34.901961%,17.647059%,23.921569%);fill-opacity:1;" d="M 146.039062 57.113281 L 144.421875 56.679688 C 138.117188 54.925781 131.6875 54.789062 125.636719 54.789062 C 117.988281 54.789062 111.371094 55.664062 105.410156 57.453125 L 104.34375 57.769531 L 104.222656 57.808594 C 95.722656 60.714844 87.8125 65.125 80.867188 70.835938 C 80.117188 71.453125 79.367188 72.085938 78.65625 72.726562 C 71.25 78.945312 65.425781 86.78125 61.347656 96.023438 C 60.957031 96.898438 60.597656 97.789062 60.242188 98.671875 C 59.199219 101.347656 54.921875 113.644531 54.304688 116.371094 L 72.4375 116.621094 C 74.371094 116.546875 77.496094 116.492188 81.484375 116.453125 L 85.359375 103.773438 L 89.71875 116.394531 C 96.570312 116.363281 104.691406 116.355469 113.191406 116.363281 L 116.269531 103.25 L 119.75 116.382812 C 138.34375 116.417969 157.609375 116.515625 168.570312 116.578125 L 171.871094 103.507812 L 175.621094 116.617188 L 177.671875 116.628906 L 195.949219 125.253906 C 195.949219 103.660156 185.625 87.925781 184.328125 86.023438 C 176.5 72.144531 162.90625 61.875 146.039062 57.113281 Z M 187.578125 137.089844 C 186.785156 130.597656 184.785156 123.246094 180.949219 115.085938 L 179.976562 113.011719 L 178.355469 113.011719 L 171.660156 89.558594 L 165.75 112.929688 C 155.640625 112.875 138.984375 112.792969 122.535156 112.757812 L 116.046875 88.316406 L 110.3125 112.738281 C 103.460938 112.738281 97.425781 112.738281 92.289062 112.761719 L 85.148438 92.066406 L 78.796875 112.859375 C 75.933594 112.898438 73.753906 112.945312 72.296875 113 L 69.835938 113.09375 L 69.015625 115.414062 C 65.429688 125.558594 64.480469 136.523438 66.191406 148.046875 C 62.214844 138.027344 60.574219 125.15625 64.777344 108.5625 L 64.800781 108.464844 C 65.351562 106.03125 66.089844 103.644531 67 101.320312 C 67.300781 100.546875 67.628906 99.761719 67.976562 98.980469 C 71.613281 90.746094 76.789062 83.78125 83.355469 78.28125 L 83.4375 78.207031 C 84.101562 77.617188 84.785156 77.03125 85.472656 76.464844 C 91.714844 71.328125 98.828125 67.351562 106.472656 64.726562 L 107.484375 64.425781 C 112.765625 62.835938 118.703125 62.0625 125.636719 62.0625 C 131.191406 62.0625 137.066406 62.191406 142.496094 63.695312 L 144.09375 64.125 C 159.152344 68.382812 171.226562 77.46875 178.09375 89.734375 L 178.183594 89.898438 L 178.296875 90.054688 C 178.398438 90.203125 188.699219 104.996094 188.699219 125.253906 C 188.695312 129.222656 188.320312 133.1875 187.578125 137.089844 Z M 187.578125 137.089844 "/>
<path style="fill:none;stroke-width:12;stroke-linecap:butt;stroke-linejoin:miter;stroke:rgb(34.901961%,17.647059%,23.921569%);stroke-opacity:1;stroke-miterlimit:10;" d="M 710 667.666803 C 706.859375 671.533991 703.625 675.323211 700.296875 679.034463 C 697.796875 681.794512 702.875 677.911731 710 667.666803 Z M 307.171875 681.60739 C 311.546875 686.301033 249.234375 579.750662 289.75 465.606256 C 297.484375 465.30998 309.984375 465.091671 325.9375 464.935736 L 341.4375 414.319241 L 358.875 464.701833 C 386.28125 464.577085 418.765625 464.545898 452.765625 464.577085 L 465.078125 412.214119 L 479 464.592679 C 553.375 464.73302 630.4375 465.122858 674.28125 465.372354 L 687.484375 413.19651 L 702.484375 465.528289 L 710.6875 465.575069 C 760.78125 572.000693 728.5 641.12667 710 667.666803 " transform="matrix(0.25,0,0,0.250505,0,0)"/>
<path style=" stroke:none;fill-rule:nonzero;fill:rgb(34.901961%,17.647059%,23.921569%);fill-opacity:1;" d="M 71.121094 115.945312 C 71.164062 115.757812 71.203125 115.617188 71.253906 115.460938 C 71.300781 115.304688 71.351562 115.160156 71.40625 115.015625 C 71.523438 114.722656 71.65625 114.4375 71.785156 114.15625 C 72.0625 113.597656 72.386719 113.058594 72.746094 112.550781 C 73.105469 112.03125 73.511719 111.546875 73.96875 111.109375 C 74.460938 110.640625 75.0625 110.296875 75.71875 110.105469 C 75.726562 110.753906 75.652344 111.402344 75.5 112.03125 C 75.429688 112.316406 75.351562 112.59375 75.265625 112.863281 L 75.015625 113.675781 C 74.851562 114.214844 74.683594 114.75 74.515625 115.277344 C 74.433594 115.542969 74.347656 115.800781 74.265625 116.0625 C 74.226562 116.1875 74.175781 116.3125 74.128906 116.445312 C 74.078125 116.578125 74.03125 116.695312 73.988281 116.796875 Z M 71.121094 115.945312 "/>
<path style=" stroke:none;fill-rule:nonzero;fill:rgb(34.901961%,17.647059%,23.921569%);fill-opacity:1;" d="M 177.671875 115.128906 C 178.1875 115.085938 178.710938 115.089844 179.226562 115.140625 C 179.75 115.1875 180.273438 115.257812 180.789062 115.359375 C 181.039062 115.40625 181.308594 115.457031 181.566406 115.519531 C 181.832031 115.574219 182.089844 115.644531 182.34375 115.734375 C 182.917969 115.925781 183.449219 116.230469 183.90625 116.628906 C 183.449219 117.027344 182.917969 117.332031 182.34375 117.53125 C 182.089844 117.617188 181.832031 117.6875 181.566406 117.742188 C 181.316406 117.804688 181.046875 117.855469 180.789062 117.90625 C 180.265625 118.003906 179.746094 118.074219 179.226562 118.121094 C 178.710938 118.171875 178.1875 118.175781 177.671875 118.132812 Z M 177.671875 115.128906 "/>
<path style=" stroke:none;fill-rule:nonzero;fill:rgb(100%,100%,100%);fill-opacity:1;" d="M 111.210938 113.246094 C 111.269531 112.050781 111.394531 110.859375 111.582031 109.675781 C 111.761719 108.5 111.984375 107.328125 112.234375 106.167969 C 112.488281 105.007812 112.773438 103.851562 113.09375 102.703125 C 113.417969 101.550781 113.804688 100.414062 114.25 99.300781 C 114.191406 100.496094 114.066406 101.6875 113.875 102.871094 C 113.695312 104.046875 113.476562 105.214844 113.222656 106.378906 C 112.96875 107.539062 112.679688 108.691406 112.363281 109.839844 C 112.039062 110.996094 111.652344 112.132812 111.210938 113.246094 Z M 111.210938 113.246094 "/>
<path style=" stroke:none;fill-rule:nonzero;fill:rgb(100%,100%,100%);fill-opacity:1;" d="M 167 113.246094 C 167.0625 112.050781 167.183594 110.859375 167.371094 109.675781 C 167.554688 108.5 167.773438 107.328125 168.023438 106.167969 C 168.277344 105.007812 168.5625 103.855469 168.871094 102.707031 C 169.191406 101.554688 169.574219 100.417969 170.015625 99.304688 C 169.957031 100.5 169.832031 101.691406 169.640625 102.875 C 169.460938 104.050781 169.242188 105.222656 168.988281 106.382812 C 168.738281 107.542969 168.449219 108.699219 168.128906 109.847656 C 167.8125 111 167.4375 112.132812 167 113.246094 Z M 167 113.246094 "/>
<path style=" stroke:none;fill-rule:nonzero;fill:rgb(34.901961%,17.647059%,23.921569%);fill-opacity:1;" d="M 59.386719 117.300781 C 59.894531 114.011719 60.855469 110.808594 62.242188 107.78125 "/>
<path style=" stroke:none;fill-rule:nonzero;fill:rgb(34.901961%,17.647059%,23.921569%);fill-opacity:1;" d="M 57.898438 117.113281 C 57.921875 116.863281 57.945312 116.648438 57.980469 116.429688 C 58.015625 116.210938 58.050781 116 58.09375 115.785156 C 58.183594 115.359375 58.28125 114.9375 58.402344 114.53125 C 58.636719 113.699219 58.925781 112.882812 59.269531 112.089844 C 59.601562 111.289062 59.992188 110.515625 60.445312 109.777344 C 60.917969 109.011719 61.527344 108.339844 62.242188 107.796875 C 62.292969 108.671875 62.253906 109.546875 62.121094 110.410156 C 62.058594 110.820312 61.996094 111.222656 61.914062 111.621094 C 61.835938 112.019531 61.769531 112.421875 61.707031 112.820312 L 61.300781 115.195312 L 61.09375 116.371094 C 61.0625 116.566406 61.023438 116.761719 60.988281 116.949219 C 60.953125 117.140625 60.914062 117.34375 60.878906 117.5 Z M 57.898438 117.113281 "/>
<path style=" stroke:none;fill-rule:nonzero;fill:rgb(34.901961%,17.647059%,23.921569%);fill-opacity:1;" d="M 192.332031 124.25 C 192.332031 124.25 192.21875 119.046875 190.238281 112.320312 "/>
<path style=" stroke:none;fill-rule:nonzero;fill:rgb(34.901961%,17.647059%,23.921569%);fill-opacity:1;" d="M 190.832031 124.28125 L 190.773438 123.589844 C 190.753906 123.339844 190.734375 123.105469 190.71875 122.863281 L 190.605469 121.402344 L 190.378906 118.445312 C 190.300781 117.457031 190.199219 116.464844 190.128906 115.457031 C 190.109375 114.957031 190.085938 114.441406 190.101562 113.917969 C 190.109375 113.382812 190.148438 112.847656 190.226562 112.316406 C 190.910156 113.136719 191.464844 114.058594 191.871094 115.042969 C 192.078125 115.523438 192.257812 116.011719 192.414062 116.507812 C 192.582031 117.007812 192.726562 117.507812 192.867188 118.011719 C 193.148438 119.011719 193.371094 120.03125 193.539062 121.058594 C 193.621094 121.574219 193.699219 122.089844 193.742188 122.613281 C 193.769531 122.875 193.789062 123.136719 193.800781 123.402344 C 193.816406 123.671875 193.824219 123.921875 193.820312 124.226562 Z M 190.832031 124.28125 "/>
<path style=" stroke:none;fill-rule:nonzero;fill:rgb(100%,100%,100%);fill-opacity:1;" d="M 126.675781 58.992188 C 123.113281 59.199219 119.566406 59.613281 116.054688 60.230469 C 115.183594 60.398438 114.304688 60.585938 113.445312 60.746094 C 112.585938 60.90625 111.71875 61.148438 110.859375 61.347656 L 108.292969 62.03125 C 107.441406 62.28125 106.601562 62.550781 105.753906 62.8125 C 102.382812 63.902344 99.089844 65.21875 95.894531 66.753906 C 92.6875 68.3125 89.578125 70.070312 86.585938 72.011719 C 89.25 69.574219 92.195312 67.460938 95.355469 65.714844 C 98.515625 63.941406 101.847656 62.488281 105.296875 61.375 C 106.164062 61.125 107.03125 60.851562 107.898438 60.609375 C 108.769531 60.371094 109.648438 60.152344 110.539062 59.957031 C 111.425781 59.761719 112.3125 59.609375 113.199219 59.457031 C 114.085938 59.308594 114.988281 59.1875 115.886719 59.078125 C 119.46875 58.636719 123.085938 58.609375 126.675781 58.992188 Z M 126.675781 58.992188 "/>
<path style=" stroke:none;fill-rule:nonzero;fill:rgb(34.901961%,17.647059%,23.921569%);fill-opacity:1;" d="M 150.222656 115.375 C 152.984375 114.667969 155.78125 114.113281 158.601562 113.710938 L 157.933594 113.796875 C 161.230469 113.359375 164.570312 113.234375 167.871094 113.675781 L 167.207031 113.585938 C 168.023438 113.703125 168.84375 113.835938 169.664062 113.941406 L 168.996094 113.851562 C 171.484375 114.195312 173.949219 114.707031 176.367188 115.382812 C 177.617188 115.730469 179.140625 114.949219 179.441406 113.628906 C 179.78125 112.296875 179.007812 110.933594 177.691406 110.546875 C 174.855469 109.769531 171.964844 109.203125 169.046875 108.847656 L 169.710938 108.941406 C 166.953125 108.449219 164.144531 108.285156 161.351562 108.449219 C 158.570312 108.632812 155.804688 109.015625 153.078125 109.589844 C 151.671875 109.875 150.277344 110.199219 148.886719 110.542969 C 147.617188 110.855469 146.734375 112.363281 147.136719 113.625 C 147.523438 114.941406 148.882812 115.71875 150.210938 115.378906 Z M 150.222656 115.375 "/>
<path style=" stroke:none;fill-rule:nonzero;fill:rgb(34.901961%,17.647059%,23.921569%);fill-opacity:1;" d="M 71.535156 115.382812 C 73.929688 114.6875 76.375 114.167969 78.847656 113.832031 L 78.183594 113.921875 C 82.445312 113.363281 86.765625 113.371094 91.027344 113.941406 L 90.363281 113.855469 C 92.847656 114.195312 95.308594 114.703125 97.726562 115.382812 C 98.976562 115.734375 100.5 114.949219 100.800781 113.628906 C 101.140625 112.296875 100.367188 110.933594 99.050781 110.546875 C 95.4375 109.542969 91.738281 108.894531 88 108.617188 C 82 108.226562 75.972656 108.882812 70.195312 110.550781 C 69.566406 110.730469 69.03125 111.144531 68.695312 111.703125 C 68.359375 112.289062 68.269531 112.980469 68.445312 113.632812 C 68.859375 114.910156 70.171875 115.769531 71.519531 115.386719 Z M 71.535156 115.382812 "/>
<use xlink:href="#surface11" mask="url(#mask2)"/>
<use xlink:href="#surface14" mask="url(#mask3)"/>
<use xlink:href="#surface17" mask="url(#mask4)"/>
<path style="fill:none;stroke-width:20;stroke-linecap:butt;stroke-linejoin:miter;stroke:rgb(34.901961%,17.647059%,23.921569%);stroke-opacity:1;stroke-miterlimit:10;" d="M 432.203125 548.548072 C 432.203125 600.084583 390.4375 641.859564 338.90625 641.859564 C 287.359375 641.859564 245.59375 600.084583 245.59375 548.548072 C 245.59375 497.011561 287.359375 455.23658 338.90625 455.23658 C 390.4375 455.23658 432.203125 497.011561 432.203125 548.548072 Z M 432.203125 548.548072 " transform="matrix(0.25,0,0,0.250505,0,0)"/>
<path style="fill:none;stroke-width:20;stroke-linecap:butt;stroke-linejoin:miter;stroke:rgb(34.901961%,17.647059%,23.921569%);stroke-opacity:1;stroke-miterlimit:10;" d="M 752.515625 548.548072 C 752.515625 600.084583 710.75 641.859564 659.203125 641.859564 C 607.671875 641.859564 565.90625 600.084583 565.90625 548.548072 C 565.90625 497.011561 607.671875 455.23658 659.203125 455.23658 C 710.75 455.23658 752.515625 497.011561 752.515625 548.548072 Z M 752.515625 548.548072 " transform="matrix(0.25,0,0,0.250505,0,0)"/>
<path style="fill:none;stroke-width:20;stroke-linecap:butt;stroke-linejoin:miter;stroke:rgb(34.901961%,17.647059%,23.921569%);stroke-opacity:1;stroke-miterlimit:10;" d="M 432.765625 548.548072 C 477.96875 530.241305 522.375 529.555192 565.90625 548.548072 " transform="matrix(0.25,0,0,0.250505,0,0)"/>
<path style=" stroke:none;fill-rule:nonzero;fill:rgb(100%,100%,100%);fill-opacity:1;" d="M 78.675781 123.375 C 79.191406 125.003906 77.191406 126.253906 75.691406 126.503906 C 74.191406 126.503906 73.191406 125.503906 72.691406 124.25 C 72.441406 122.996094 72.691406 121.746094 73.691406 120.992188 C 74.941406 120.492188 76.691406 119.992188 77.800781 121.277344 C 78.363281 121.828125 78.679688 122.585938 78.675781 123.375 Z M 78.675781 123.375 "/>
<path style=" stroke:none;fill-rule:nonzero;fill:rgb(100%,100%,100%);fill-opacity:1;" d="M 81.34375 122.414062 C 81.191406 123.5 79.691406 123.5 79.441406 122.496094 C 79.441406 121.746094 79.691406 121.496094 80.402344 121.46875 C 80.652344 121.46875 80.890625 121.570312 81.066406 121.746094 C 81.246094 121.925781 81.34375 122.164062 81.34375 122.414062 Z M 81.34375 122.414062 "/>
<use xlink:href="#surface20" mask="url(#mask5)"/>
<use xlink:href="#surface23" mask="url(#mask6)"/>
<path style="fill:none;stroke-width:20;stroke-linecap:butt;stroke-linejoin:miter;stroke:rgb(34.901961%,17.647059%,23.921569%);stroke-opacity:1;stroke-miterlimit:10;" d="M 752.515625 548.548072 C 752.515625 600.084583 710.75 641.859564 659.203125 641.859564 C 607.671875 641.859564 565.90625 600.084583 565.90625 548.548072 C 565.90625 497.011561 607.671875 455.23658 659.203125 455.23658 C 710.75 455.23658 752.515625 497.011561 752.515625 548.548072 Z M 752.515625 548.548072 " transform="matrix(0.25,0,0,0.250505,0,0)"/>
<path style=" stroke:none;fill-rule:nonzero;fill:rgb(100%,100%,100%);fill-opacity:1;" d="M 158.75 123.375 C 159.265625 125.003906 157.265625 126.253906 155.765625 126.503906 C 154.265625 126.503906 153.265625 125.503906 152.765625 124.25 C 152.515625 122.996094 152.765625 121.746094 153.765625 120.992188 C 155.015625 120.492188 156.765625 119.992188 157.878906 121.277344 C 158.4375 121.828125 158.753906 122.585938 158.75 123.375 Z M 158.75 123.375 "/>
<path style=" stroke:none;fill-rule:nonzero;fill:rgb(100%,100%,100%);fill-opacity:1;" d="M 161.421875 122.414062 C 161.269531 123.5 159.769531 123.5 159.519531 122.496094 C 159.519531 121.746094 159.769531 121.496094 160.480469 121.46875 C 161 121.46875 161.421875 121.894531 161.421875 122.414062 Z M 161.421875 122.414062 "/>
</g>
</svg>
